<svg width="20" height="20" viewBox="0 0 20 20" fill="none" xmlns="http://www.w3.org/2000/svg">
<g id="Icon/more">
<g id="vuesax/linear/more">
<g id="more">
<path id="Vector" d="M9.99935 3.25C10.5018 3.25 10.916 3.66421 10.916 4.16667C10.916 4.66912 10.5018 5.08333 9.99935 5.08333C9.4969 5.08333 9.08268 4.66912 9.08268 4.16667C9.08268 3.66421 9.4969 3.25 9.99935 3.25Z" fill="#717171" stroke="#717171" stroke-width="1.5"/>
<path id="Vector_2" d="M9.99935 14.917C10.5018 14.917 10.916 15.3312 10.916 15.8337C10.916 16.3361 10.5018 16.7503 9.99935 16.7503C9.4969 16.7503 9.08268 16.3361 9.08268 15.8337C9.08268 15.3312 9.4969 14.917 9.99935 14.917Z" fill="#717171" stroke="#717171" stroke-width="1.5"/>
<path id="Vector_3" d="M9.99935 9.08301C10.5018 9.08301 10.916 9.49722 10.916 9.99967C10.916 10.5021 10.5018 10.9163 9.99935 10.9163C9.4969 10.9163 9.08268 10.5021 9.08268 9.99967C9.08268 9.49722 9.4969 9.08301 9.99935 9.08301Z" fill="#717171" stroke="#717171" stroke-width="1.5"/>
</g>
</g>
</g>
</svg>
