<svg width="20" height="20" viewBox="0 0 20 20" fill="none" xmlns="http://www.w3.org/2000/svg">
<g id="Icons/Solid/Layout/grid-01            ">
<g id="Solid">
<path fill-rule="evenodd" clip-rule="evenodd" d="M3.80611 1.66651C4.87939 1.66664 5.95477 1.66664 7.02594 1.66651C7.23625 1.66648 7.44108 1.66646 7.61455 1.68063C7.80504 1.69619 8.02982 1.73292 8.256 1.84816C8.56961 2.00795 8.82457 2.26292 8.98436 2.57652C9.09961 2.80271 9.13634 3.02749 9.1519 3.21798C9.16607 3.39145 9.16605 3.59628 9.16602 3.80661V7.02641C9.16605 7.23673 9.16607 7.44156 9.1519 7.61503C9.13634 7.80553 9.09961 8.03031 8.98436 8.25649C8.82457 8.5701 8.56961 8.82506 8.256 8.98485C8.02982 9.1001 7.80504 9.13682 7.61455 9.15239C7.44108 9.16656 7.23624 9.16654 7.02592 9.16651H3.80612C3.5958 9.16654 3.39096 9.16656 3.21749 9.15239C3.027 9.13682 2.80222 9.1001 2.57604 8.98485C2.26243 8.82506 2.00746 8.5701 1.84768 8.25649C1.73243 8.03031 1.6957 7.80553 1.68014 7.61503C1.66597 7.44157 1.66599 7.23674 1.66602 7.02642C1.66602 7.01757 1.66602 7.00871 1.66602 6.99984V3.83317C1.66602 3.82431 1.66602 3.81544 1.66602 3.80659C1.66599 3.59627 1.66597 3.39145 1.68014 3.21798C1.6957 3.02749 1.73243 2.80271 1.84768 2.57652C2.00746 2.26292 2.26243 2.00795 2.57604 1.84816C2.80222 1.73292 3.027 1.69619 3.2175 1.68063C3.39096 1.66646 3.59579 1.66648 3.80611 1.66651Z" fill="white"/>
<path fill-rule="evenodd" clip-rule="evenodd" d="M3.80611 10.8332C4.87939 10.8333 5.95477 10.8333 7.02594 10.8332C7.23625 10.8331 7.44108 10.8331 7.61455 10.8473C7.80504 10.8629 8.02982 10.8996 8.256 11.0148C8.56961 11.1746 8.82457 11.4296 8.98436 11.7432C9.09961 11.9694 9.13634 12.1942 9.1519 12.3847C9.16607 12.5581 9.16605 12.763 9.16602 12.9733V16.1931C9.16605 16.4034 9.16607 16.6082 9.1519 16.7817C9.13634 16.9722 9.09961 17.197 8.98436 17.4232C8.82457 17.7368 8.56961 17.9917 8.256 18.1515C8.02982 18.2668 7.80504 18.3035 7.61455 18.3191C7.44108 18.3332 7.23624 18.3332 7.02592 18.3332H3.80612C3.5958 18.3332 3.39096 18.3332 3.21749 18.3191C3.027 18.3035 2.80222 18.2668 2.57604 18.1515C2.26243 17.9917 2.00746 17.7368 1.84768 17.4232C1.73243 17.197 1.6957 16.9722 1.68014 16.7817C1.66597 16.6082 1.66599 16.4034 1.66602 16.1931C1.66602 16.1842 1.66602 16.1754 1.66602 16.1665V12.9998C1.66602 12.991 1.66602 12.9821 1.66602 12.9733C1.66599 12.7629 1.66597 12.5581 1.68014 12.3847C1.6957 12.1942 1.73243 11.9694 1.84768 11.7432C2.00746 11.4296 2.26243 11.1746 2.57604 11.0148C2.80222 10.8996 3.027 10.8629 3.2175 10.8473C3.39096 10.8331 3.59579 10.8331 3.80611 10.8332Z" fill="white"/>
<path fill-rule="evenodd" clip-rule="evenodd" d="M12.9728 1.66651C14.0461 1.66664 15.1214 1.66664 16.1926 1.66651C16.4029 1.66648 16.6077 1.66646 16.7812 1.68063C16.9717 1.69619 17.1965 1.73292 17.4227 1.84816C17.7363 2.00795 17.9912 2.26292 18.151 2.57652C18.2663 2.80271 18.303 3.02749 18.3186 3.21798C18.3327 3.39145 18.3327 3.59628 18.3327 3.80661V7.02641C18.3327 7.23673 18.3327 7.44156 18.3186 7.61503C18.303 7.80553 18.2663 8.03031 18.151 8.25649C17.9912 8.5701 17.7363 8.82506 17.4227 8.98485C17.1965 9.1001 16.9717 9.13682 16.7812 9.15239C16.6077 9.16656 16.4029 9.16654 16.1926 9.16651H12.9728C12.7625 9.16654 12.5576 9.16656 12.3842 9.15239C12.1937 9.13682 11.9689 9.1001 11.7427 8.98485C11.4291 8.82506 11.1741 8.5701 11.0143 8.25649C10.8991 8.03031 10.8624 7.80553 10.8468 7.61503C10.8326 7.44157 10.8327 7.23674 10.8327 7.02642C10.8327 7.01757 10.8327 7.00871 10.8327 6.99984V3.83317C10.8327 3.82431 10.8327 3.81544 10.8327 3.80659C10.8327 3.59627 10.8326 3.39145 10.8468 3.21798C10.8624 3.02749 10.8991 2.80271 11.0143 2.57652C11.1741 2.26292 11.4291 2.00795 11.7427 1.84816C11.9689 1.73292 12.1937 1.69619 12.3842 1.68063C12.5576 1.66646 12.7625 1.66648 12.9728 1.66651Z" fill="white"/>
<path fill-rule="evenodd" clip-rule="evenodd" d="M12.9728 10.8332C14.0461 10.8333 15.1214 10.8333 16.1926 10.8332C16.4029 10.8331 16.6077 10.8331 16.7812 10.8473C16.9717 10.8629 17.1965 10.8996 17.4227 11.0148C17.7363 11.1746 17.9912 11.4296 18.151 11.7432C18.2663 11.9694 18.303 12.1942 18.3186 12.3847C18.3327 12.5581 18.3327 12.763 18.3327 12.9733V16.1931C18.3327 16.4034 18.3327 16.6082 18.3186 16.7817C18.303 16.9722 18.2663 17.197 18.151 17.4232C17.9912 17.7368 17.7363 17.9917 17.4227 18.1515C17.1965 18.2668 16.9717 18.3035 16.7812 18.3191C16.6077 18.3332 16.4029 18.3332 16.1926 18.3332H12.9728C12.7625 18.3332 12.5576 18.3332 12.3842 18.3191C12.1937 18.3035 11.9689 18.2668 11.7427 18.1515C11.4291 17.9917 11.1741 17.7368 11.0143 17.4232C10.8991 17.197 10.8624 16.9722 10.8468 16.7817C10.8326 16.6082 10.8327 16.4034 10.8327 16.1931C10.8327 16.1842 10.8327 16.1754 10.8327 16.1665V12.9998C10.8327 12.991 10.8327 12.9821 10.8327 12.9733C10.8327 12.7629 10.8326 12.5581 10.8468 12.3847C10.8624 12.1942 10.8991 11.9694 11.0143 11.7432C11.1741 11.4296 11.4291 11.1746 11.7427 11.0148C11.9689 10.8996 12.1937 10.8629 12.3842 10.8473C12.5576 10.8331 12.7625 10.8331 12.9728 10.8332Z" fill="white"/>
</g>
</g>
</svg>
