<svg width="56" height="56" viewBox="0 0 56 56" fill="none" xmlns="http://www.w3.org/2000/svg">
<rect width="56" height="56" rx="28" fill="#462AFF"/>
<path d="M39.8531 29.3334V30.6667H38.6932C37.7065 30.6667 36.9065 31.4667 36.9065 32.4667V32.8667C36.9065 33.8667 36.1065 34.6667 35.1065 34.6667C34.1198 34.6667 33.3198 33.8667 33.3198 32.8667V32.4667C33.3198 31.4667 32.5065 30.6667 31.5198 30.6667C30.5332 30.6667 29.7332 31.4667 29.7332 32.4667V32.8667C29.7332 33.8667 28.9198 34.6667 27.9332 34.6667C26.9465 34.6667 26.1332 33.8667 26.1332 32.8667V32.4667C26.1332 31.4667 25.3332 30.6667 24.3465 30.6667C23.3598 30.6667 22.5465 31.4667 22.5465 32.4667V32.8667C22.5465 33.8667 21.7465 34.6667 20.7598 34.6667C19.7598 34.6667 18.9598 33.8667 18.9598 32.8667V32.44C18.9598 31.4534 18.1732 30.6534 17.1998 30.64H16.1465V29.3334C16.1465 27.4934 17.5332 25.9334 19.4132 25.48C19.7865 25.3867 20.1732 25.3334 20.5865 25.3334H35.4132C35.8265 25.3334 36.2132 25.3867 36.5865 25.48C38.4665 25.9334 39.8531 27.4934 39.8531 29.3334Z" fill="white"/>
<path d="M36.5874 21.56V23.44C36.2007 23.36 35.8141 23.3333 35.4141 23.3333H20.5874C20.1874 23.3333 19.8007 23.3733 19.4141 23.4533V21.56C19.4141 19.96 20.8541 18.6666 22.6407 18.6666H33.3607C35.1474 18.6666 36.5874 19.96 36.5874 21.56Z" fill="white"/>
<path d="M23.666 16.7334V18.68H22.6393C22.2927 18.68 21.9727 18.72 21.666 18.8V16.7334C21.666 16.2667 22.1193 15.8667 22.666 15.8667C23.2127 15.8667 23.666 16.2667 23.666 16.7334Z" fill="white"/>
<path d="M34.334 16.4399V18.7999C34.0273 18.7066 33.7073 18.6666 33.3607 18.6666H32.334V16.4399C32.334 15.8933 32.7873 15.4399 33.334 15.4399C33.8807 15.4399 34.334 15.8933 34.334 16.4399Z" fill="white"/>
<path d="M29 15.76V18.6666H27V15.76C27 15.16 27.4533 14.6666 28 14.6666C28.5467 14.6666 29 15.16 29 15.76Z" fill="white"/>
<path d="M41.3327 40.3333C41.3327 40.88 40.8793 41.3333 40.3327 41.3333H15.666C15.1193 41.3333 14.666 40.88 14.666 40.3333C14.666 39.7867 15.1193 39.3333 15.666 39.3333H16.146V32.64H16.9593V32.7333C16.9593 34.52 18.1327 36.1733 19.8793 36.56C21.2393 36.88 22.5327 36.44 23.4127 35.5733C23.9193 35.0667 24.746 35.0533 25.2527 35.56C25.946 36.24 26.8927 36.6667 27.9327 36.6667C28.9727 36.6667 29.9193 36.2533 30.6127 35.56C31.1193 35.0667 31.9327 35.0667 32.4527 35.5733C33.3193 36.44 34.6127 36.88 35.986 36.56C37.7327 36.1733 38.906 34.52 38.906 32.7333V32.6667H39.8527V39.3333H40.3327C40.8793 39.3333 41.3327 39.7867 41.3327 40.3333Z" fill="white"/>
</svg>
