<!DOCTYPE svg PUBLIC "-//W3C//DTD SVG 1.1//EN" "http://www.w3.org/Graphics/SVG/1.1/DTD/svg11.dtd">
<!-- Uploaded to: SVG Repo, www.svgrepo.com, Transformed by: SVG Repo Mixer Tools -->
<svg fill="#000000" width="64px" height="64px" viewBox="0 0 32 32" data-name="Layer 1" id="Layer_1" xmlns="http://www.w3.org/2000/svg">
<g id="SVGRepo_bgCarrier" stroke-width="0"/>
<g id="SVGRepo_tracerCarrier" stroke-linecap="round" stroke-linejoin="round"/>
<g id="SVGRepo_iconCarrier">
<title/>
<path d="M26.61,2H10.74a2.9,2.9,0,0,0-.6.07A7.14,7.14,0,0,0,9.21,2,6.62,6.62,0,0,0,7.94,15.12V27.2a2.81,2.81,0,0,0,2.8,2.8H26.61a2.8,2.8,0,0,0,2.8-2.8V4.8A2.8,2.8,0,0,0,26.61,2ZM4.46,8.62a4.76,4.76,0,1,1,4.75,4.76A4.75,4.75,0,0,1,4.46,8.62ZM27.54,27.2a.93.93,0,0,1-.93.93H10.74a.93.93,0,0,1-.93-.93v-12a6.61,6.61,0,0,0,4-11.34h12.8a.93.93,0,0,1,.93.93Z"/>
<path d="M10.42,11.15a.94.94,0,0,0,1.32,0,.94.94,0,0,0,0-1.32L10.53,8.62l1.21-1.2a.94.94,0,0,0,0-1.32.92.92,0,0,0-1.32,0L9.21,7.3,8,6.1a.92.92,0,0,0-1.32,0,.94.94,0,0,0,0,1.32l1.21,1.2L6.68,9.83a.94.94,0,0,0,0,1.32,1,1,0,0,0,.66.27A.93.93,0,0,0,8,11.15L9.21,9.94Z"/>
</g>
</svg>