<svg width="20" height="20" viewBox="0 0 20 20" fill="none" xmlns="http://www.w3.org/2000/svg">
<path d="M10.0007 0.833252C10.4609 0.833252 10.834 1.20635 10.834 1.66659V2.49992H15.6994C16.1387 2.4999 16.5177 2.49989 16.8298 2.52539C17.1593 2.55231 17.487 2.61174 17.8023 2.7724C18.2727 3.01209 18.6552 3.39454 18.8948 3.86494C19.0555 4.18026 19.1149 4.50794 19.1418 4.8374C19.1673 5.14954 19.1673 5.5285 19.1673 5.96778V11.5321C19.1673 11.9713 19.1673 12.3503 19.1418 12.6624C19.1149 12.9919 19.0555 13.3196 18.8948 13.6349C18.6552 14.1053 18.2727 14.4878 17.8023 14.7274C17.487 14.8881 17.1593 14.9475 16.8298 14.9744C16.5177 14.9999 16.1388 14.9999 15.6995 14.9999H14.5125L17.2566 17.744C17.582 18.0694 17.582 18.5971 17.2566 18.9225C16.9311 19.2479 16.4035 19.2479 16.0781 18.9225L12.1555 14.9999H10.834V18.3333C10.834 18.7935 10.4609 19.1666 10.0007 19.1666C9.54041 19.1666 9.16732 18.7935 9.16732 18.3333V14.9999H7.84583L3.92324 18.9225C3.5978 19.2479 3.07017 19.2479 2.74473 18.9225C2.41929 18.5971 2.41929 18.0694 2.74473 17.744L5.48881 14.9999H4.30188C3.86263 14.9999 3.48359 14.9999 3.17146 14.9744C2.84201 14.9475 2.51433 14.8881 2.19901 14.7274C1.72861 14.4878 1.34615 14.1053 1.10647 13.6349C0.945809 13.3196 0.886379 12.9919 0.859461 12.6624C0.833959 12.3503 0.833971 11.9714 0.833985 11.5321V5.9678C0.833971 5.52852 0.833959 5.14953 0.859461 4.8374C0.886379 4.50794 0.945809 4.18026 1.10647 3.86494C1.34615 3.39454 1.72861 3.01209 2.19901 2.7724C2.51433 2.61174 2.84201 2.55231 3.17146 2.52539C3.48361 2.49989 3.86258 2.4999 4.30187 2.49992H9.16732V1.66659C9.16732 1.20635 9.54041 0.833252 10.0007 0.833252Z" fill="white"/>
</svg>
