<svg width="20" height="20" viewBox="0 0 20 20" fill="none" xmlns="http://www.w3.org/2000/svg">
<path fill-rule="evenodd" clip-rule="evenodd" d="M3.80611 1.66675C4.87939 1.66688 5.95477 1.66688 7.02594 1.66675C7.23625 1.66673 7.44108 1.6667 7.61455 1.68087C7.80504 1.69644 8.02982 1.73316 8.256 1.84841C8.56961 2.0082 8.82457 2.26316 8.98436 2.57677C9.09961 2.80295 9.13634 3.02773 9.1519 3.21823C9.16607 3.3917 9.16605 3.59653 9.16602 3.80685V7.02665C9.16605 7.23698 9.16607 7.44181 9.1519 7.61528C9.13634 7.80577 9.09961 8.03055 8.98436 8.25674C8.82457 8.57034 8.56961 8.82531 8.256 8.9851C8.02982 9.10034 7.80504 9.13707 7.61455 9.15263C7.44108 9.1668 7.23624 9.16678 7.02592 9.16675H3.80612C3.5958 9.16678 3.39096 9.1668 3.21749 9.15263C3.027 9.13707 2.80222 9.10034 2.57604 8.9851C2.26243 8.82531 2.00746 8.57034 1.84768 8.25674C1.73243 8.03055 1.6957 7.80577 1.68014 7.61528C1.66597 7.44181 1.66599 7.23699 1.66602 7.02667C1.66602 7.01782 1.66602 7.00896 1.66602 7.00009V3.83342C1.66602 3.82455 1.66602 3.81569 1.66602 3.80684C1.66599 3.59652 1.66597 3.39169 1.68014 3.21823C1.6957 3.02773 1.73243 2.80295 1.84768 2.57677C2.00746 2.26316 2.26243 2.0082 2.57604 1.84841C2.80222 1.73316 3.027 1.69644 3.2175 1.68087C3.39096 1.6667 3.59579 1.66673 3.80611 1.66675Z" fill="white"/>
<path fill-rule="evenodd" clip-rule="evenodd" d="M3.80611 10.8334C4.87939 10.8336 5.95477 10.8335 7.02594 10.8334C7.23625 10.8334 7.44108 10.8334 7.61455 10.8475C7.80504 10.8631 8.02982 10.8998 8.256 11.0151C8.56961 11.1749 8.82457 11.4298 8.98436 11.7434C9.09961 11.9696 9.13634 12.1944 9.1519 12.3849C9.16607 12.5584 9.16605 12.7632 9.16602 12.9735V16.1933C9.16605 16.4036 9.16607 16.6085 9.1519 16.7819C9.13634 16.9724 9.09961 17.1972 8.98436 17.4234C8.82457 17.737 8.56961 17.992 8.256 18.1518C8.02982 18.267 7.80504 18.3037 7.61455 18.3193C7.44108 18.3335 7.23624 18.3334 7.02592 18.3334H3.80612C3.5958 18.3334 3.39096 18.3335 3.21749 18.3193C3.027 18.3037 2.80222 18.267 2.57604 18.1518C2.26243 17.992 2.00746 17.737 1.84768 17.4234C1.73243 17.1972 1.6957 16.9724 1.68014 16.7819C1.66597 16.6085 1.66599 16.4037 1.66602 16.1933C1.66602 16.1845 1.66602 16.1756 1.66602 16.1668V13.0001C1.66602 12.9912 1.66602 12.9824 1.66602 12.9735C1.66599 12.7632 1.66597 12.5584 1.68014 12.3849C1.6957 12.1944 1.73243 11.9696 1.84768 11.7434C2.00746 11.4298 2.26243 11.1749 2.57604 11.0151C2.80222 10.8998 3.027 10.8631 3.2175 10.8475C3.39096 10.8334 3.59579 10.8334 3.80611 10.8334Z" fill="white"/>
<path fill-rule="evenodd" clip-rule="evenodd" d="M12.9728 1.66675C14.0461 1.66688 15.1214 1.66688 16.1926 1.66675C16.4029 1.66673 16.6077 1.6667 16.7812 1.68087C16.9717 1.69644 17.1965 1.73316 17.4227 1.84841C17.7363 2.0082 17.9912 2.26316 18.151 2.57677C18.2663 2.80295 18.303 3.02773 18.3186 3.21823C18.3327 3.3917 18.3327 3.59653 18.3327 3.80685V7.02665C18.3327 7.23698 18.3327 7.44181 18.3186 7.61528C18.303 7.80577 18.2663 8.03055 18.151 8.25674C17.9912 8.57034 17.7363 8.82531 17.4227 8.9851C17.1965 9.10034 16.9717 9.13707 16.7812 9.15263C16.6077 9.1668 16.4029 9.16678 16.1926 9.16675H12.9728C12.7625 9.16678 12.5576 9.1668 12.3842 9.15263C12.1937 9.13707 11.9689 9.10034 11.7427 8.9851C11.4291 8.82531 11.1741 8.57034 11.0143 8.25674C10.8991 8.03055 10.8624 7.80577 10.8468 7.61528C10.8326 7.44181 10.8327 7.23699 10.8327 7.02667C10.8327 7.01782 10.8327 7.00896 10.8327 7.00009V3.83342C10.8327 3.82455 10.8327 3.81569 10.8327 3.80684C10.8327 3.59652 10.8326 3.39169 10.8468 3.21823C10.8624 3.02773 10.8991 2.80295 11.0143 2.57677C11.1741 2.26316 11.4291 2.0082 11.7427 1.84841C11.9689 1.73316 12.1937 1.69644 12.3842 1.68087C12.5576 1.6667 12.7625 1.66673 12.9728 1.66675Z" fill="white"/>
<path fill-rule="evenodd" clip-rule="evenodd" d="M12.9728 10.8334C14.0461 10.8336 15.1214 10.8335 16.1926 10.8334C16.4029 10.8334 16.6077 10.8334 16.7812 10.8475C16.9717 10.8631 17.1965 10.8998 17.4227 11.0151C17.7363 11.1749 17.9912 11.4298 18.151 11.7434C18.2663 11.9696 18.303 12.1944 18.3186 12.3849C18.3327 12.5584 18.3327 12.7632 18.3327 12.9735V16.1933C18.3327 16.4036 18.3327 16.6085 18.3186 16.7819C18.303 16.9724 18.2663 17.1972 18.151 17.4234C17.9912 17.737 17.7363 17.992 17.4227 18.1518C17.1965 18.267 16.9717 18.3037 16.7812 18.3193C16.6077 18.3335 16.4029 18.3334 16.1926 18.3334H12.9728C12.7625 18.3334 12.5576 18.3335 12.3842 18.3193C12.1937 18.3037 11.9689 18.267 11.7427 18.1518C11.4291 17.992 11.1741 17.737 11.0143 17.4234C10.8991 17.1972 10.8624 16.9724 10.8468 16.7819C10.8326 16.6085 10.8327 16.4037 10.8327 16.1933C10.8327 16.1845 10.8327 16.1756 10.8327 16.1668V13.0001C10.8327 12.9912 10.8327 12.9824 10.8327 12.9735C10.8327 12.7632 10.8326 12.5584 10.8468 12.3849C10.8624 12.1944 10.8991 11.9696 11.0143 11.7434C11.1741 11.4298 11.4291 11.1749 11.7427 11.0151C11.9689 10.8998 12.1937 10.8631 12.3842 10.8475C12.5576 10.8334 12.7625 10.8334 12.9728 10.8334Z" fill="white"/>
</svg>
