<!DOCTYPE svg PUBLIC "-//W3C//DTD SVG 1.1//EN" "http://www.w3.org/Graphics/SVG/1.1/DTD/svg11.dtd">
<!-- Uploaded to: SVG Repo, www.svgrepo.com, Transformed by: SVG Repo Mixer Tools -->
<svg fill="#000000" height="64px" width="64px" version="1.1" id="Layer_1" xmlns="http://www.w3.org/2000/svg" xmlns:xlink="http://www.w3.org/1999/xlink" viewBox="0 0 512 512" xml:space="preserve">
<g id="SVGRepo_bgCarrier" stroke-width="0"/>
<g id="SVGRepo_tracerCarrier" stroke-linecap="round" stroke-linejoin="round"/>
<g id="SVGRepo_iconCarrier"> <g> <g> <path d="M502.317,182.775c-5.352,0-9.683,4.335-9.683,9.683v58.864L314.82,126.429c-2.913-2.038-6.402-2.326-9.579-0.728 l-148.313,74.232L16.699,50.277c-3.659-3.901-9.749-4.099-13.645-0.44c-3.905,3.655-4.085,9.787-0.426,13.687l145.25,154.923 c2.931,3.13,7.579,3.943,11.399,2.038l149.763-74.279L486.645,271.13h-70.261c-5.352,0-9.683,4.335-9.683,9.683 c0,5.347,4.331,9.683,9.683,9.683h87.144c5.352,0,8.472-5.546,8.472-10.893v-87.144C512,187.111,507.669,182.775,502.317,182.775z "/> </g> </g> <g> <g> <path d="M382.419,281.229l-86.842-58.096c-2.884-1.924-6.43-2.161-9.55-0.605l-149.032,74.554L64.46,233.586 c-2.846-2.492-7.508-3.097-10.959-1.532c-3.461,1.57-6.269,5.016-6.269,8.818V453.89c0,5.347,5.541,10.893,10.893,10.893h319.529 c5.352,0,8.472-5.546,8.472-10.893V289.285C386.125,286.046,385.113,283.025,382.419,281.229z M366.76,445.418H66.597v-183.21 l62.011,53.727c2.95,2.595,7.508,3.125,11.007,1.376l149.438-74.951l77.707,52.106V445.418z"/> </g> </g> </g>
</svg>