<svg width="38" height="38" viewBox="0 0 38 38" fill="none" xmlns="http://www.w3.org/2000/svg">
<rect width="38" height="38" rx="8" fill="#FFEBEE"/>
<path d="M23 13V12.2C23 11.0799 23 10.5198 22.782 10.092C22.5903 9.71569 22.2843 9.40973 21.908 9.21799C21.4802 9 20.9201 9 19.8 9H18.2C17.0799 9 16.5198 9 16.092 9.21799C15.7157 9.40973 15.4097 9.71569 15.218 10.092C15 10.5198 15 11.0799 15 12.2V13M17 18.5V23.5M21 18.5V23.5M10 13H28M26 13V24.2C26 25.8802 26 26.7202 25.673 27.362C25.3854 27.9265 24.9265 28.3854 24.362 28.673C23.7202 29 22.8802 29 21.2 29H16.8C15.1198 29 14.2798 29 13.638 28.673C13.0735 28.3854 12.6146 27.9265 12.327 27.362C12 26.7202 12 25.8802 12 24.2V13" stroke="#F03B2A" stroke-width="2" stroke-linecap="round" stroke-linejoin="round"/>
</svg>
