<svg width="20" height="20" viewBox="0 0 20 20" fill="none" xmlns="http://www.w3.org/2000/svg">
<g id="Icons/Solid/Finance/bank">
<path id="Solid" fill-rule="evenodd" clip-rule="evenodd" d="M9.85376 1.69338C9.95064 1.68489 10.0481 1.68489 10.1449 1.69338C10.2564 1.70316 10.3626 1.72693 10.447 1.74581L16.6583 3.12611C16.8253 3.1632 16.9913 3.20007 17.1316 3.24226C17.2883 3.28935 17.4666 3.35776 17.6402 3.48288C17.8855 3.65959 18.0781 3.8997 18.1974 4.17748C18.2819 4.37417 18.31 4.56304 18.322 4.72618C18.3327 4.87235 18.3327 5.04242 18.3327 5.2135V6.19338C18.3327 6.40363 18.3327 6.60846 18.3186 6.78187C18.303 6.97237 18.2663 7.19715 18.151 7.42333C17.9912 7.73694 17.7363 7.99191 17.4227 8.15169C17.1965 8.26694 16.9717 8.30366 16.7812 8.31923C16.7442 8.32226 16.7057 8.32464 16.666 8.32651V13.3402C16.7057 13.3421 16.7442 13.3444 16.7812 13.3475C16.9717 13.363 17.1965 13.3997 17.4227 13.515C17.7363 13.6748 17.9912 13.9298 18.151 14.2434C18.2663 14.4695 18.303 14.6943 18.3186 14.8848C18.3327 15.0582 18.3327 15.2631 18.3327 15.4733V16.1934C18.3327 16.4037 18.3327 16.6085 18.3186 16.7819C18.303 16.9724 18.2663 17.1971 18.151 17.4233C17.9912 17.7369 17.7363 17.9919 17.4227 18.1517C17.1965 18.2669 16.9717 18.3037 16.7812 18.3192C16.6077 18.3334 16.4029 18.3334 16.1926 18.3333H3.80611C3.59579 18.3334 3.39096 18.3334 3.21749 18.3192C3.027 18.3037 2.80222 18.2669 2.57604 18.1517C2.26243 17.9919 2.00746 17.7369 1.84768 17.4233C1.73243 17.1971 1.6957 16.9724 1.68014 16.7819C1.66597 16.6084 1.66599 16.4036 1.66602 16.1932L1.66602 15.4734C1.66599 15.2631 1.66597 15.0583 1.68014 14.8848C1.69571 14.6943 1.73243 14.4695 1.84768 14.2434C2.00746 13.9298 2.26243 13.6748 2.57604 13.515C2.80222 13.3997 3.027 13.363 3.2175 13.3475C3.25454 13.3444 3.29302 13.3421 3.33268 13.3402V8.3265C3.29302 8.32464 3.25454 8.32226 3.21749 8.31923C3.027 8.30366 2.80222 8.26694 2.57604 8.15169C2.26243 7.9919 2.00746 7.73694 1.84768 7.42333C1.73243 7.19715 1.6957 6.97237 1.68014 6.78187C1.66597 6.60841 1.66599 6.40358 1.66602 6.19326L1.66602 5.21349C1.666 5.04241 1.66598 4.87235 1.67671 4.72618C1.68869 4.56304 1.7168 4.37417 1.80127 4.17748C1.92056 3.8997 2.11317 3.65959 2.35846 3.48288C2.53214 3.35776 2.71042 3.28934 2.86707 3.24226C3.00743 3.20007 3.17345 3.1632 3.34046 3.12611L9.5517 1.74581C9.63606 1.72693 9.74232 1.70316 9.85376 1.69338ZM4.99935 8.33335V13.3333H7.08268V8.33335H4.99935ZM8.74935 8.33335V13.3333H11.2493V8.33335H8.74935ZM12.916 8.33335V13.3333H14.9993V8.33335H12.916Z" fill="white"/>
</g>
</svg>
