<svg width="117" height="32" viewBox="0 0 117 32" fill="none" xmlns="http://www.w3.org/2000/svg">
<g clip-path="url(#clip0_838_6947)">
<path d="M49.0172 17.7067C49.0172 18.1091 48.9449 18.545 48.8002 19.0145C48.6556 19.4765 48.4195 19.9087 48.0922 20.3111C47.7724 20.706 47.3499 21.0376 46.8245 21.3059C46.3068 21.5742 45.6749 21.7083 44.9288 21.7083H39.5728V18.9474H44.9288C45.3323 18.9474 45.6445 18.8282 45.8652 18.5898C46.086 18.3439 46.1964 18.0421 46.1964 17.6844C46.1964 17.3043 46.0708 17.0063 45.8196 16.7902C45.5759 16.5741 45.279 16.466 44.9288 16.466H39.5728C39.1693 16.466 38.8571 16.589 38.6363 16.8349C38.4155 17.0733 38.3051 17.3714 38.3051 17.7291V21.7865C38.3051 22.174 38.427 22.4758 38.6706 22.6919C38.9218 22.908 39.2302 23.0161 39.5956 23.0161H44.9288V25.7881H39.5728C39.1616 25.7881 38.7163 25.7173 38.2366 25.5757C37.7646 25.4342 37.323 25.2069 36.9119 24.8939C36.5084 24.5735 36.1696 24.1599 35.8955 23.6532C35.6214 23.139 35.4844 22.5168 35.4844 21.7865V17.7067C35.4844 17.3043 35.5567 16.8721 35.7014 16.4101C35.846 15.9407 36.0782 15.5085 36.398 15.1135C36.7254 14.7111 37.1479 14.3758 37.6656 14.1076C38.1909 13.8393 38.8267 13.7052 39.5728 13.7052H44.9288C45.3399 13.7052 45.7815 13.776 46.2535 13.9175C46.7332 14.0591 47.1747 14.2901 47.5783 14.6105C47.9894 14.9235 48.332 15.3371 48.6061 15.8513C48.8801 16.358 49.0172 16.9765 49.0172 17.7067Z" fill="white"/>
<path d="M64.5599 21.7083C64.5599 22.2076 64.4952 22.6584 64.3658 23.0608C64.2364 23.4557 64.0651 23.806 63.8519 24.1115C63.6387 24.4095 63.3913 24.6666 63.1096 24.8827C62.8279 25.0914 62.531 25.2628 62.2188 25.3969C61.9143 25.531 61.6021 25.6316 61.2824 25.6987C60.9702 25.7583 60.6733 25.7881 60.3916 25.7881H55.0356C54.5255 25.7881 54.0687 25.7248 53.6652 25.5981C53.2617 25.4714 52.9038 25.3037 52.5917 25.0951C52.2871 24.879 52.0245 24.6331 51.8037 24.3574C51.5905 24.0817 51.4154 23.7948 51.2784 23.4967C51.1413 23.1912 51.0385 22.8857 50.97 22.5801C50.9091 22.2672 50.8787 21.9766 50.8787 21.7083V17.7738C50.8787 17.0286 51.0157 16.399 51.2898 15.8848C51.5715 15.3632 51.9179 14.9421 52.329 14.6217C52.7478 14.2939 53.2008 14.0591 53.688 13.9175C54.1753 13.776 54.6245 13.7052 55.0356 13.7052H60.3916V16.6113H55.0584C54.6625 16.6113 54.3618 16.7119 54.1562 16.9131C53.9507 17.1069 53.8479 17.3938 53.8479 17.7738V21.6859C53.8479 22.0809 53.9469 22.379 54.1448 22.5801C54.3504 22.7813 54.6473 22.8819 55.0356 22.8819H60.3916C60.7951 22.8819 61.0958 22.7813 61.2938 22.5801C61.4917 22.379 61.5907 22.0883 61.5907 21.7083V8.59702H64.5599V21.7083Z" fill="white"/>
<path d="M81.0734 25.7881H78.1042V19.0816C78.1042 18.7015 78.0357 18.3625 77.8986 18.0644C77.7692 17.7589 77.5903 17.4981 77.3619 17.282C77.1335 17.0659 76.8632 16.9019 76.551 16.7902C76.2465 16.6709 75.9153 16.6113 75.5575 16.6113H70.3614V25.7881H67.3921V15.1471C67.3921 14.9459 67.4302 14.7596 67.5063 14.5882C67.5825 14.4094 67.6891 14.2566 67.8261 14.1299C67.9631 13.9958 68.123 13.8915 68.3057 13.8169C68.4885 13.7424 68.6826 13.7052 68.8882 13.7052H75.5803C75.9534 13.7052 76.3455 13.7462 76.7566 13.8281C77.1753 13.9101 77.5865 14.0442 77.99 14.2305C78.4011 14.4094 78.7894 14.6404 79.1548 14.9235C79.5279 15.1992 79.8553 15.5383 80.137 15.9407C80.4263 16.3356 80.6547 16.7939 80.8222 17.3155C80.9897 17.8371 81.0734 18.4258 81.0734 19.0816V25.7881Z" fill="white"/>
<path d="M86.6921 11.2237H83.7229V8.59702H86.6921V11.2237ZM86.6921 25.7881H83.7229V13.7052H86.6921V25.7881Z" fill="white"/>
<path d="M100.476 16.6113H93.7611V13.7052H100.476V16.6113ZM100.476 11.3691H93.784C93.3805 11.3691 93.0759 11.4697 92.8704 11.6709C92.6648 11.8646 92.562 12.1515 92.562 12.5315V25.7881H89.5928V12.5315C89.5928 12.0323 89.6575 11.5852 89.7869 11.1902C89.9164 10.7953 90.0877 10.4488 90.3008 10.1507C90.5216 9.84518 90.7729 9.5881 91.0546 9.37945C91.3363 9.16335 91.6294 8.98824 91.9339 8.85411C92.2461 8.71997 92.5582 8.6231 92.8704 8.56349C93.1825 8.49642 93.4794 8.46289 93.7611 8.46289H100.476V11.3691Z" fill="white"/>
<path d="M116.042 26.9506C116.042 27.4498 115.977 27.8969 115.848 28.2919C115.718 28.6943 115.547 29.0445 115.334 29.3426C115.121 29.6481 114.873 29.9052 114.591 30.1138C114.31 30.3299 114.013 30.505 113.701 30.6392C113.396 30.7733 113.088 30.8702 112.776 30.9298C112.463 30.9969 112.167 31.0304 111.885 31.0304H106.529V28.1242H111.885C112.281 28.1242 112.578 28.0236 112.776 27.8224C112.974 27.6212 113.073 27.3306 113.073 26.9506V13.7052H116.042V26.9506ZM111.885 25.7881H106.529C106.102 25.7881 105.646 25.7173 105.158 25.5757C104.679 25.4342 104.23 25.2031 103.811 24.8827C103.392 24.5548 103.046 24.1338 102.772 23.6197C102.498 23.098 102.36 22.4609 102.36 21.7083V13.7052H105.33V21.7083C105.33 22.0883 105.432 22.379 105.638 22.5801C105.844 22.7813 106.148 22.8819 106.552 22.8819H111.885V25.7881Z" fill="white"/>
<path d="M16.3032 0.94043C13.2684 0.94043 10.3018 1.8228 7.77844 3.47596C5.25509 5.12913 3.28837 7.47884 2.127 10.228C0.965633 12.9771 0.661765 16.0021 1.25383 18.9206C1.84589 21.839 3.30729 24.5198 5.45322 26.6238C7.59915 28.7279 10.3332 30.1608 13.3097 30.7413C16.2862 31.3218 19.3714 31.0239 22.1752 29.8852C24.979 28.7465 27.3755 26.8181 29.0615 24.344C30.7476 21.8698 31.6475 18.961 31.6475 15.9854C31.6475 11.9952 30.0309 8.16849 27.1533 5.34701C24.2757 2.52552 20.3728 0.94043 16.3032 0.94043ZM9.43887 8.55944V8.16203C9.43849 7.9267 9.48548 7.69361 9.57715 7.47612C9.66882 7.25863 9.80337 7.06102 9.97308 6.89462C10.1428 6.72822 10.3443 6.59629 10.5662 6.50641C10.788 6.41652 11.0257 6.37045 11.2657 6.37082H22.5075V7.529V8.20745C22.5079 8.44291 22.461 8.67613 22.3693 8.89378C22.2777 9.11142 22.1432 9.30922 21.9735 9.47585C21.8038 9.64248 21.6023 9.77468 21.3805 9.86487C21.1586 9.95506 20.9209 10.0015 20.6807 10.0015H9.43887V8.56228V8.55944ZM9.43887 15.5738V15.2218C9.43808 14.75 9.62752 14.2969 9.96591 13.9614C10.3043 13.6259 10.7642 13.4351 11.2454 13.4306C11.3866 13.4035 11.5301 13.3893 11.6739 13.388H22.5075V14.5462V15.2672C22.5079 15.5026 22.4609 15.7357 22.3693 15.9531C22.2776 16.1706 22.143 16.3682 21.9733 16.5346C21.8036 16.701 21.6021 16.833 21.3803 16.9229C21.1584 17.0127 20.9207 17.0588 20.6807 17.0584H9.43887V16.7377V15.5738ZM22.5075 25.3474V25.9151H11.2657C10.7812 25.9151 10.3165 25.7264 9.97394 25.3905C9.63134 25.0546 9.43887 24.599 9.43887 24.1239V22.2901H20.6807C20.9207 22.2897 21.1584 22.3358 21.3803 22.4257C21.6021 22.5156 21.8036 22.6475 21.9733 22.8139C22.143 22.9803 22.2776 23.1779 22.3693 23.3954C22.4609 23.6129 22.5079 23.846 22.5075 24.0813V25.3474Z" fill="white"/>
</g>
<defs>
<clipPath id="clip0_838_6947">
<rect width="117" height="32" fill="white"/>
</clipPath>
</defs>
</svg>
