<svg width="20" height="20" viewBox="0 0 20 20" fill="none" xmlns="http://www.w3.org/2000/svg">
<g clip-path="url(#clip0_1548_10104)">
<path d="M10.3652 1.34277V7.77134" stroke="black" stroke-width="1.71429" stroke-linecap="round" stroke-linejoin="round"/>
<path d="M16.8093 1.34277V14.3716" stroke="black" stroke-width="1.71429" stroke-linecap="round" stroke-linejoin="round"/>
<path d="M3.89136 1.34277V14.3716" stroke="black" stroke-width="1.71429" stroke-linecap="round" stroke-linejoin="round"/>
<path d="M10.3647 12.0571V18.4856" stroke="black" stroke-width="1.71429" stroke-linecap="round" stroke-linejoin="round"/>
<path d="M8.67557 11.3865C9.43714 12.2808 11.2293 12.2808 11.9909 11.3865C12.6923 10.5627 12.6391 8.95045 11.7948 8.24524C11.0386 7.61357 9.62786 7.61357 8.87163 8.24524C8.02736 8.95045 7.97413 10.5627 8.67557 11.3865Z" stroke="black" stroke-width="1.71429" stroke-linecap="round" stroke-linejoin="round"/>
<path d="M15.1511 17.9865C15.9127 18.8809 17.705 18.8809 18.4665 17.9865C19.168 17.1628 19.1147 15.5505 18.2704 14.8453C17.5143 14.2137 16.1034 14.2137 15.3473 14.8453C14.503 15.5505 14.4497 17.1628 15.1511 17.9865Z" stroke="black" stroke-width="1.71429" stroke-linecap="round" stroke-linejoin="round"/>
<path d="M2.2351 17.9867C2.99667 18.8812 4.78896 18.8812 5.55053 17.9867C6.25196 17.163 6.19868 15.5507 5.35439 14.8456C4.59825 14.2139 3.18739 14.2139 2.43125 14.8456C1.58696 15.5507 1.53367 17.163 2.2351 17.9867Z" stroke="black" stroke-width="1.71429" stroke-linecap="round" stroke-linejoin="round"/>
</g>
<defs>
<clipPath id="clip0_1548_10104">
<rect width="20" height="20" fill="white"/>
</clipPath>
</defs>
</svg>
