<svg width="28" height="28" viewBox="0 0 28 28" fill="none" xmlns="http://www.w3.org/2000/svg">
<rect width="28" height="28" rx="14" fill="#B9B9B9"/>
<path d="M19.0008 8.99996C18.4925 8.99996 18.0258 8.70829 17.7925 8.25829L17.1925 7.04996C16.8091 6.29163 15.8091 5.66663 14.9591 5.66663H13.0508C12.1925 5.66663 11.1925 6.29163 10.8091 7.04996L10.2091 8.25829C9.97579 8.70829 9.50912 8.99996 9.00079 8.99996C7.19246 8.99996 5.75912 10.525 5.87579 12.325L6.30912 19.2083C6.40912 20.925 7.33412 22.3333 9.63412 22.3333H18.3675C20.6675 22.3333 21.5841 20.925 21.6925 19.2083L22.1258 12.325C22.2425 10.525 20.8091 8.99996 19.0008 8.99996ZM12.7508 10.0416H15.2508C15.5925 10.0416 15.8758 10.325 15.8758 10.6666C15.8758 11.0083 15.5925 11.2916 15.2508 11.2916H12.7508C12.4091 11.2916 12.1258 11.0083 12.1258 10.6666C12.1258 10.325 12.4091 10.0416 12.7508 10.0416ZM14.0008 19.1C12.4508 19.1 11.1841 17.8416 11.1841 16.2833C11.1841 14.725 12.4425 13.4666 14.0008 13.4666C15.5591 13.4666 16.8175 14.725 16.8175 16.2833C16.8175 17.8416 15.5508 19.1 14.0008 19.1Z" fill="#1E1E1E"/>
</svg>
