<svg width="20" height="20" viewBox="0 0 20 20" fill="none" xmlns="http://www.w3.org/2000/svg">
<path fill-rule="evenodd" clip-rule="evenodd" d="M10.834 2.50008C10.834 2.03984 10.4609 1.66675 10.0007 1.66675C9.54046 1.66675 9.16737 2.03984 9.16737 2.50008V5.96094L4.87897 6.67567C4.82716 6.68331 4.77654 6.69578 4.72769 6.71272C4.6215 6.74939 4.52623 6.8064 4.44566 6.87846C4.37958 6.93744 4.32242 7.00741 4.27715 7.08663L1.27308 12.3437C1.16374 12.5348 1.06725 12.7034 0.997288 12.8874C0.935721 13.0493 0.891146 13.2171 0.864279 13.3882C0.833748 13.5827 0.833867 13.777 0.834002 13.9971L0.83402 14.1667C0.83402 14.1692 0.834031 14.1716 0.834052 14.1741C0.838002 16.4719 2.70197 18.3334 5.00071 18.3334C7.3019 18.3334 9.16738 16.4679 9.16738 14.1668L9.16738 13.9808C9.16739 13.9729 9.16739 13.9649 9.16739 13.9567C9.1674 13.753 9.16574 13.5707 9.13709 13.3882C9.11023 13.2171 9.06565 13.0493 9.00409 12.8874C8.93412 12.7034 8.83763 12.5348 8.72829 12.3437L6.31787 8.12551L13.4062 6.94412L11.2731 10.6771C11.1637 10.8681 11.0673 11.0367 10.9973 11.2207C10.9357 11.3826 10.8911 11.5505 10.8643 11.7216C10.8337 11.916 10.8339 12.1103 10.834 12.3304L10.834 12.5001C10.834 12.5025 10.834 12.505 10.8341 12.5074C10.838 14.8052 12.702 16.6668 15.0007 16.6668C17.3019 16.6668 19.1674 14.8013 19.1674 12.5001L19.1674 12.3142C19.1674 12.3039 19.1674 12.2934 19.1674 12.2828C19.1674 12.082 19.1654 11.9019 19.1371 11.7216C19.1102 11.5505 19.0657 11.3826 19.0041 11.2207C18.9341 11.0367 18.8376 10.8681 18.7283 10.6771L15.7323 5.43406C15.7021 5.37873 15.6659 5.32751 15.6247 5.28111C15.469 5.1051 15.2438 5.0009 15.0035 5.00009L15.0007 5.00008C14.949 5.00008 14.898 5.00486 14.8483 5.01411L10.834 5.68316V2.50008ZM16.898 10.8334L15.0007 7.51305L13.1033 10.8334H16.898ZM6.89804 12.5001L5.00069 9.17972L3.10333 12.5001H6.89804Z" fill="white"/>
</svg>
