<svg width="16" height="17" viewBox="0 0 16 17" fill="none" xmlns="http://www.w3.org/2000/svg">
<g id="Icons/Solid/Users/users-01                   ">
<g id="Solid">
<path fill-rule="evenodd" clip-rule="evenodd" d="M12.0211 10.4175C12.1128 10.0609 12.4763 9.84629 12.8329 9.93806C14.2704 10.3081 15.3334 11.6122 15.3334 13.1663V14.4997C15.3334 14.8679 15.0349 15.1663 14.6667 15.1663C14.2985 15.1663 14 14.8679 14 14.4997V13.1663C14 12.2353 13.3633 11.4514 12.5005 11.2293C12.1439 11.1375 11.9293 10.7741 12.0211 10.4175Z" fill="#1E1E1E"/>
<path fill-rule="evenodd" clip-rule="evenodd" d="M9.7154 2.44337C9.85355 2.10208 10.2422 1.9374 10.5835 2.07555C11.8039 2.56955 12.6667 3.76638 12.6667 5.16634C12.6667 6.5663 11.8039 7.76314 10.5835 8.25713C10.2422 8.39528 9.85355 8.2306 9.7154 7.88931C9.57725 7.54802 9.74193 7.15936 10.0832 7.02121C10.8174 6.72402 11.3334 6.00464 11.3334 5.16634C11.3334 4.32805 10.8174 3.60866 10.0832 3.31147C9.74193 3.17332 9.57725 2.78466 9.7154 2.44337Z" fill="#1E1E1E"/>
<path fill-rule="evenodd" clip-rule="evenodd" d="M4.78598 9.83299C5.81757 9.83333 6.84915 9.83333 7.88073 9.83299C8.60781 9.83275 9.10395 9.83258 9.52942 9.94659C10.6797 10.2548 11.5782 11.1533 11.8864 12.3036C12.0399 12.8765 11.9955 13.4887 12.0001 14.0757C12.0007 14.147 12.0019 14.2912 11.966 14.4252C11.8735 14.7703 11.6039 15.0398 11.2588 15.1323C11.1248 15.1682 10.9807 15.167 10.9094 15.1665C7.85941 15.1421 4.80731 15.1421 1.7573 15.1665C1.68602 15.167 1.54188 15.1682 1.40787 15.1323C1.06278 15.0398 0.793233 14.7703 0.700765 14.4252C0.664858 14.2912 0.666007 14.147 0.666575 14.0757C0.671243 13.4902 0.627014 12.8756 0.780272 12.3036C1.0885 11.1533 1.98699 10.2548 3.13729 9.94659C3.56277 9.83258 4.05891 9.83275 4.78598 9.83299Z" fill="#1E1E1E"/>
<path fill-rule="evenodd" clip-rule="evenodd" d="M3.00002 5.16634C3.00002 3.32539 4.49241 1.83301 6.33336 1.83301C8.17431 1.83301 9.66669 3.32539 9.66669 5.16634C9.66669 7.00729 8.17431 8.49967 6.33336 8.49967C4.49241 8.49967 3.00002 7.00729 3.00002 5.16634Z" fill="#1E1E1E"/>
</g>
</g>
</svg>
