<svg width="90" height="32" viewBox="0 0 90 32" fill="none" xmlns="http://www.w3.org/2000/svg">
<path d="M35.5193 22.7385C35.5193 23.1809 35.4601 23.5805 35.3416 23.9371C35.2232 24.2871 35.0665 24.5975 34.8714 24.8683C34.6763 25.1324 34.4499 25.3602 34.1921 25.5518C33.9344 25.7367 33.6626 25.8886 33.377 26.0074C33.0983 26.1263 32.8127 26.2155 32.5201 26.2749C32.2345 26.3277 31.9628 26.3541 31.705 26.3541H26.8039C26.3371 26.3541 25.9191 26.298 25.5498 26.1857C25.1806 26.0735 24.8532 25.9249 24.5675 25.74C24.2889 25.5485 24.0485 25.3305 23.8465 25.0862C23.6514 24.8418 23.4912 24.5876 23.3658 24.3234C23.2404 24.0527 23.1463 23.7819 23.0836 23.5111C23.0279 23.2338 23 22.9762 23 22.7385V19.2516C23 18.5912 23.1254 18.0332 23.3762 17.5775C23.634 17.1152 23.951 16.7421 24.3272 16.4581C24.7103 16.1676 25.1249 15.9596 25.5707 15.8341C26.0166 15.7086 26.4277 15.6459 26.8039 15.6459H31.705V18.2214H26.8248C26.4625 18.2214 26.1873 18.3106 25.9992 18.4889C25.8111 18.6606 25.717 18.9148 25.717 19.2516V22.7187C25.717 23.0687 25.8076 23.3328 25.9887 23.5111C26.1768 23.6895 26.4486 23.7786 26.8039 23.7786H31.705C32.0742 23.7786 32.3494 23.6895 32.5305 23.5111C32.7117 23.3328 32.8023 23.0753 32.8023 22.7385V11.1189H35.5193V22.7385Z" fill="white"/>
<path d="M40.8698 13.4468H38.1527V11.1189H40.8698V13.4468ZM40.8698 26.3541H38.1527V15.6459H40.8698V26.3541Z" fill="white"/>
<path d="M56.0016 26.3541H53.2846V20.4106C53.2846 20.0738 53.2219 19.7733 53.0965 19.5092C52.978 19.2384 52.8143 19.0073 52.6053 18.8158C52.3963 18.6242 52.149 18.4789 51.8633 18.3799C51.5847 18.2742 51.2816 18.2214 50.9542 18.2214H46.1994V26.3541H43.4823V16.9237C43.4823 16.7454 43.5171 16.5803 43.5868 16.4284C43.6565 16.2699 43.754 16.1346 43.8794 16.0223C44.0048 15.9034 44.1511 15.811 44.3183 15.7449C44.4855 15.6789 44.6632 15.6459 44.8513 15.6459H50.9751C51.3165 15.6459 51.6752 15.6822 52.0514 15.7548C52.4346 15.8275 52.8108 15.9463 53.1801 16.1114C53.5563 16.2699 53.9116 16.4747 54.246 16.7256C54.5874 16.97 54.8869 17.2704 55.1447 17.627C55.4094 17.9771 55.6184 18.3832 55.7717 18.8455C55.925 19.3077 56.0016 19.8295 56.0016 20.4106V26.3541Z" fill="white"/>
<path d="M61.1431 13.4468H58.426V11.1189H61.1431V13.4468ZM61.1431 26.3541H58.426V15.6459H61.1431V26.3541Z" fill="white"/>
<path d="M73.7564 18.2214H67.6117V15.6459H73.7564V18.2214ZM73.7564 13.5755H67.6326C67.2634 13.5755 66.9847 13.6647 66.7966 13.843C66.6085 14.0147 66.5145 14.2689 66.5145 14.6057V26.3541H63.7974V14.6057C63.7974 14.1633 63.8566 13.767 63.9751 13.417C64.0935 13.067 64.2503 12.7599 64.4453 12.4958C64.6474 12.225 64.8773 11.9972 65.135 11.8123C65.3928 11.6208 65.661 11.4656 65.9397 11.3467C66.2253 11.2278 66.511 11.142 66.7966 11.0892C67.0823 11.0297 67.354 11 67.6117 11H73.7564V13.5755Z" fill="white"/>
<path d="M88 27.3843C88 27.8268 87.9408 28.223 87.8223 28.5731C87.7039 28.9297 87.5472 29.2401 87.3521 29.5042C87.157 29.775 86.9306 30.0028 86.6728 30.1877C86.4151 30.3792 86.1434 30.5344 85.8577 30.6533C85.579 30.7722 85.2969 30.858 85.0113 30.9108C84.7256 30.9703 84.4539 31 84.1961 31H79.295V28.4245H84.1961C84.5584 28.4245 84.8301 28.3353 85.0113 28.157C85.1924 27.9787 85.283 27.7211 85.283 27.3843V15.6459H88V27.3843ZM84.1961 26.3541H79.295C78.9049 26.3541 78.4869 26.2914 78.041 26.1659C77.6021 26.0404 77.1911 25.8357 76.8079 25.5518C76.4247 25.2612 76.1077 24.8881 75.8569 24.4324C75.6061 23.9701 75.4807 23.4055 75.4807 22.7385V15.6459H78.1978V22.7385C78.1978 23.0753 78.2918 23.3328 78.4799 23.5111C78.668 23.6895 78.9467 23.7786 79.3159 23.7786H84.1961V26.3541Z" fill="white"/>
<path d="M2 22H16.6961C17.5723 22 18.4127 22.273 19.0323 22.7591C19.6519 23.2451 20 23.9042 20 24.5916V26H5.31506C4.88024 26.0011 4.44942 25.935 4.04728 25.8052C3.64514 25.6755 3.27961 25.4848 2.97163 25.244C2.66365 25.0033 2.41929 24.7172 2.25256 24.4022C2.08582 24.0872 2 23.7495 2 23.4084V22Z" fill="white"/>
<path d="M20 24.1526V25C20 24.4289 19.6757 23.8812 19.0985 23.4772C18.5213 23.0732 17.7382 22.846 16.9215 22.8455H2V22H16.9104C17.3156 21.999 17.7171 22.0539 18.0919 22.1616C18.4667 22.2693 18.8074 22.4277 19.0944 22.6277C19.3814 22.8277 19.6092 23.0654 19.7646 23.327C19.92 23.5887 20 23.8693 20 24.1526Z" fill="white"/>
<path d="M5.313 1.00002H20V2.76054C20 3.6197 19.6521 4.44366 19.0329 5.05118C18.4137 5.6587 17.5738 6 16.6981 6H2V4.23948C2 3.81315 2.08577 3.391 2.2524 2.99726C2.41903 2.60352 2.66324 2.24592 2.97103 1.94497C3.27881 1.64401 3.64412 1.40562 4.04601 1.24347C4.4479 1.08131 4.87846 0.998579 5.313 1.00002Z" fill="white"/>
<path d="M20 1V2.72883H5.08964C4.68392 2.7253 4.28158 2.80741 3.90596 2.97041C3.53034 3.1334 3.18892 3.37403 2.9015 3.67834C2.61409 3.98264 2.3864 4.34457 2.23165 4.74311C2.0769 5.14165 1.99817 5.56887 2.00003 6V4.27117C2.00003 3.4036 2.32437 2.57157 2.90169 1.9581C3.47902 1.34464 4.26204 1 5.0785 1H20Z" fill="white"/>
<path d="M5.313 11H20V12.7605C20 13.1859 19.9146 13.6072 19.7487 14.0002C19.5827 14.3933 19.3395 14.7504 19.0329 15.0512C18.7263 15.352 18.3623 15.5906 17.9617 15.7534C17.5611 15.9162 17.1317 16 16.6981 16H2V14.2395C2 13.8131 2.08577 13.391 2.2524 12.9973C2.41903 12.6035 2.66324 12.2459 2.97103 11.945C3.27881 11.644 3.64412 11.4056 4.04601 11.2435C4.4479 11.0813 4.87846 10.9986 5.313 11Z" fill="white"/>
<path d="M20 11.0148V12.7436H5.08038C4.67652 12.7417 4.27627 12.8245 3.90262 12.9873C3.52898 13.15 3.18929 13.3896 2.90306 13.6922C2.61684 13.9947 2.38972 14.3544 2.23475 14.7504C2.07977 15.1465 2 15.5711 2 16V14.2712C2 13.4036 2.32454 12.5716 2.90222 11.9581C3.47991 11.3446 4.26341 11 5.08038 11L20 11.0148Z" fill="white"/>
</svg>
