<svg width="32" height="32" viewBox="0 0 32 32" fill="none" xmlns="http://www.w3.org/2000/svg">
<g clip-path="url(#clip0_1790_629)">
<path d="M16.3032 0.940308C13.2684 0.940308 10.3018 1.82268 7.77844 3.47584C5.25509 5.12901 3.28837 7.47872 2.127 10.2278C0.965633 12.9769 0.661765 16.002 1.25383 18.9204C1.84589 21.8389 3.30729 24.5196 5.45322 26.6237C7.59915 28.7278 10.3332 30.1607 13.3097 30.7412C16.2862 31.3217 19.3714 31.0238 22.1752 29.8851C24.979 28.7463 27.3755 26.818 29.0615 24.3439C30.7476 21.8697 31.6475 18.9609 31.6475 15.9853C31.6475 11.9951 30.0309 8.16837 27.1533 5.34689C24.2757 2.5254 20.3728 0.940308 16.3032 0.940308ZM9.43887 8.55932V8.1619C9.43849 7.92657 9.48548 7.69349 9.57715 7.476C9.66882 7.25851 9.80337 7.0609 9.97308 6.8945C10.1428 6.72809 10.3443 6.59617 10.5662 6.50628C10.788 6.4164 11.0257 6.37033 11.2657 6.3707H22.5075V7.52888V8.20732C22.5079 8.44279 22.461 8.67601 22.3693 8.89366C22.2777 9.1113 22.1432 9.3091 21.9735 9.47573C21.8038 9.64236 21.6023 9.77455 21.3805 9.86475C21.1586 9.95494 20.9209 10.0014 20.6807 10.0014H9.43887V8.56216V8.55932ZM9.43887 15.5737V15.2217C9.43808 14.7498 9.62752 14.2968 9.96591 13.9613C10.3043 13.6258 10.7642 13.435 11.2454 13.4305C11.3866 13.4034 11.5301 13.3891 11.6739 13.3879H22.5075V14.5461V15.2671C22.5079 15.5024 22.4609 15.7355 22.3693 15.953C22.2776 16.1705 22.143 16.3681 21.9733 16.5345C21.8036 16.7009 21.6021 16.8329 21.3803 16.9227C21.1584 17.0126 20.9207 17.0587 20.6807 17.0583H9.43887V16.7375V15.5737ZM22.5075 25.3473V25.915H11.2657C10.7812 25.915 10.3165 25.7263 9.97394 25.3904C9.63134 25.0544 9.43887 24.5988 9.43887 24.1238V22.29H20.6807C20.9207 22.2896 21.1584 22.3357 21.3803 22.4256C21.6021 22.5155 21.8036 22.6474 21.9733 22.8138C22.143 22.9802 22.2776 23.1778 22.3693 23.3953C22.4609 23.6128 22.5079 23.8459 22.5075 24.0812V25.3473Z" fill="white"/>
</g>
<defs>
<clipPath id="clip0_1790_629">
<rect width="32" height="32" fill="white"/>
</clipPath>
</defs>
</svg>
