<svg width="20" height="20" viewBox="0 0 20 20" fill="none" xmlns="http://www.w3.org/2000/svg">
<path d="M6.66602 3.00008C6.66602 2.53337 6.66602 2.30002 6.57519 2.12176C6.49529 1.96495 6.36781 1.83747 6.21101 1.75758C6.03275 1.66675 5.79939 1.66675 5.33268 1.66675H5.1339C4.69462 1.66673 4.31563 1.66672 4.00349 1.69222C3.67404 1.71914 3.34636 1.77857 3.03104 1.93923C2.56064 2.17892 2.17818 2.56137 1.9385 3.03177C1.77784 3.34709 1.71841 3.67477 1.69149 4.00423C1.66599 4.31636 1.666 4.69532 1.66602 5.1346V14.8655C1.666 15.3048 1.66599 15.6838 1.69149 15.9959C1.71841 16.3254 1.77784 16.6531 1.9385 16.9684C2.17818 17.4388 2.56064 17.8212 3.03104 18.0609C3.34636 18.2216 3.67404 18.281 4.00349 18.3079C4.31563 18.3334 4.6946 18.3334 5.13388 18.3334H5.33268C5.79939 18.3334 6.03275 18.3334 6.21101 18.2426C6.36781 18.1627 6.49529 18.0352 6.57519 17.8784C6.66602 17.7001 6.66602 17.4668 6.66602 17.0001L6.66602 3.00008Z" fill="white"/>
<path fill-rule="evenodd" clip-rule="evenodd" d="M8.33268 17.0001C8.33268 17.4668 8.33268 17.7001 8.42351 17.8784C8.50341 18.0352 8.63089 18.1627 8.78769 18.2426C8.96595 18.3334 9.19931 18.3334 9.66602 18.3334H14.8648C15.3041 18.3334 15.6831 18.3334 15.9952 18.3079C16.3247 18.281 16.6523 18.2216 16.9677 18.0609C17.4381 17.8212 17.8205 17.4388 18.0602 16.9684C18.2209 16.6531 18.2803 16.3254 18.3072 15.9959C18.3327 15.6838 18.3327 15.3048 18.3327 14.8656V5.13461C18.3327 4.69533 18.3327 4.31637 18.3072 4.00423C18.2803 3.67477 18.2209 3.34709 18.0602 3.03177C17.8205 2.56137 17.4381 2.17892 16.9677 1.93923C16.6523 1.77857 16.3247 1.71914 15.9952 1.69222C15.6831 1.66672 15.3041 1.66673 14.8648 1.66675H9.66602C9.19931 1.66675 8.96595 1.66675 8.78769 1.75758C8.63089 1.83747 8.50341 1.96495 8.42351 2.12176C8.33268 2.30002 8.33268 2.53337 8.33268 3.00008L8.33268 17.0001ZM9.99935 5.83342C9.99935 5.37318 10.3724 5.00008 10.8327 5.00008H15.8327C16.2929 5.00008 16.666 5.37318 16.666 5.83342C16.666 6.29365 16.2929 6.66675 15.8327 6.66675H10.8327C10.3724 6.66675 9.99935 6.29365 9.99935 5.83342ZM10.8327 8.33342C10.3724 8.33342 9.99935 8.70651 9.99935 9.16675C9.99935 9.62699 10.3724 10.0001 10.8327 10.0001H15.8327C16.2929 10.0001 16.666 9.62699 16.666 9.16675C16.666 8.70651 16.2929 8.33342 15.8327 8.33342H10.8327ZM10.8327 11.6667C10.3724 11.6667 9.99935 12.0398 9.99935 12.5001C9.99935 12.9603 10.3724 13.3334 10.8327 13.3334H15.8327C16.2929 13.3334 16.666 12.9603 16.666 12.5001C16.666 12.0398 16.2929 11.6667 15.8327 11.6667H10.8327Z" fill="white"/>
</svg>
