<svg width="17" height="16" viewBox="0 0 17 16" fill="none" xmlns="http://www.w3.org/2000/svg">
<g id="Icon/manat">
<path id="Vector" d="M4.27352 7.35271C5.17008 5.78561 6.37864 4.74428 7.70973 4.45967L7.45832 13.5225L7.44892 13.8614L7.75008 13.7057L9.28715 12.9112L9.39797 12.854L9.39527 12.7292L9.21613 4.4604C10.5477 4.75018 11.7538 5.79187 12.6476 7.35751C13.5918 9.0115 14.1722 11.2274 14.1722 13.6737C14.1722 13.9196 14.1601 14.1663 14.1478 14.4187L14.1376 14.6284H14.3476H15.7494H15.9356L15.9489 14.4427C15.9738 14.0936 15.9863 13.7446 15.9863 13.3824C15.9863 10.6065 15.2269 8.07461 13.9779 6.18638C12.7674 4.35616 11.0864 3.11764 9.18332 2.87493L9.16165 1.56797L9.15617 1.23745L8.86594 1.39569L7.89451 1.92534L7.79329 1.98053L7.79032 2.09578L7.77017 2.87662C5.87872 3.13774 4.20933 4.38252 3.00746 6.21172C1.76803 8.0981 1.01484 10.6198 1.01484 13.3824C1.01484 13.7446 1.0273 14.0936 1.05224 14.4427L1.06551 14.6284H1.25173H2.56747H2.77748L2.76723 14.4187C2.75489 14.1663 2.74287 13.9196 2.74287 13.6737C2.74287 11.2275 3.32628 9.00839 4.27352 7.35271Z" fill="#9A9A9A" stroke="#9A9A9A" stroke-width="0.4"/>
</g>
</svg>
