<svg width="24" height="24" viewBox="0 0 24 24" fill="none" xmlns="http://www.w3.org/2000/svg">
<path d="M12 3.75C12.6858 3.75 13.25 4.31421 13.25 5C13.25 5.68579 12.6858 6.25 12 6.25C11.3142 6.25 10.75 5.68579 10.75 5C10.75 4.31421 11.3142 3.75 12 3.75Z" fill="#717171" stroke="#717171" stroke-width="1.5"/>
<path d="M12 17.75C12.6858 17.75 13.25 18.3142 13.25 19C13.25 19.6858 12.6858 20.25 12 20.25C11.3142 20.25 10.75 19.6858 10.75 19C10.75 18.3142 11.3142 17.75 12 17.75Z" fill="#717171" stroke="#717171" stroke-width="1.5"/>
<path d="M12 10.75C12.6858 10.75 13.25 11.3142 13.25 12C13.25 12.6858 12.6858 13.25 12 13.25C11.3142 13.25 10.75 12.6858 10.75 12C10.75 11.3142 11.3142 10.75 12 10.75Z" fill="#717171" stroke="#717171" stroke-width="1.5"/>
</svg>
