<svg width="92" height="92" viewBox="0 0 92 92" fill="none" xmlns="http://www.w3.org/2000/svg">
<path d="M74.1361 55.545L70.3028 49.1816C69.4978 47.7633 68.7695 45.08 68.7695 43.5083V33.81C68.7695 24.8016 63.4795 17.02 55.8511 13.3783C53.8578 9.85163 50.1778 7.66663 45.9611 7.66663C41.7828 7.66663 38.0261 9.92829 36.0328 13.4933C28.5578 17.2116 23.3828 24.9166 23.3828 33.81V43.5083C23.3828 45.08 22.6545 47.7633 21.8495 49.1433L17.9778 55.545C16.4445 58.1133 16.0995 60.95 17.0578 63.5566C17.9778 66.125 20.1628 68.1183 22.9995 69.0766C30.4361 71.6066 38.2561 72.8333 46.0761 72.8333C53.8961 72.8333 61.7161 71.6066 69.1528 69.115C71.8361 68.2333 73.9061 66.2016 74.9028 63.5566C75.8995 60.9116 75.6311 57.9983 74.1361 55.545Z" fill="#462AFF"/>
<path d="M56.8478 76.705C55.2378 81.1516 50.9828 84.3333 45.9995 84.3333C42.9711 84.3333 39.9811 83.1066 37.8728 80.9216C36.6461 79.7716 35.7261 78.2383 35.1895 76.6666C35.6878 76.7433 36.1861 76.7816 36.7228 76.8583C37.6045 76.9733 38.5245 77.0883 39.4445 77.165C41.6295 77.3566 43.8528 77.4716 46.0761 77.4716C48.2611 77.4716 50.4461 77.3566 52.5928 77.165C53.3978 77.0883 54.2028 77.05 54.9695 76.935C55.5828 76.8583 56.1961 76.7816 56.8478 76.705Z" fill="#462AFF"/>
</svg>
