<svg width="24" height="24" viewBox="0 0 24 24" fill="none" xmlns="http://www.w3.org/2000/svg">
<g id="vuesax/linear/password-check">
<g id="password-check">
<path id="Vector" d="M11.02 19.5H7.5C6.88 19.5 6.33 19.48 5.84 19.41C3.21 19.12 2.5 17.88 2.5 14.5V9.5C2.5 6.12 3.21 4.88 5.84 4.59C6.33 4.52 6.88 4.5 7.5 4.5H10.96" stroke="#1E1E1E" stroke-width="2" stroke-linecap="round" stroke-linejoin="round"/>
<path id="Vector_2" d="M15.0195 4.5H16.4995C17.1195 4.5 17.6695 4.52 18.1595 4.59C20.7895 4.88 21.4995 6.12 21.4995 9.5V14.5C21.4995 17.88 20.7895 19.12 18.1595 19.41C17.6695 19.48 17.1195 19.5 16.4995 19.5H15.0195" stroke="#1E1E1E" stroke-width="2" stroke-linecap="round" stroke-linejoin="round"/>
<path id="Vector_3" d="M15 2V22" stroke="#1E1E1E" stroke-width="2" stroke-linecap="round" stroke-linejoin="round"/>
<path id="Vector_4" d="M11.0941 12H11.1031" stroke="#1E1E1E" stroke-width="2" stroke-linecap="round" stroke-linejoin="round"/>
<path id="Vector_5" d="M7.09412 12H7.1031" stroke="#1E1E1E" stroke-width="2" stroke-linecap="round" stroke-linejoin="round"/>
</g>
</g>
</svg>
