<svg width="20" height="20" viewBox="0 0 20 20" fill="none" xmlns="http://www.w3.org/2000/svg">
<path d="M13.7507 1.66659C11.6796 1.66659 10.0007 3.34552 10.0007 5.41658C10.0007 7.48765 11.6796 9.16658 13.7507 9.16658C15.8217 9.16658 17.5007 7.48765 17.5007 5.41658C17.5007 3.34552 15.8217 1.66659 13.7507 1.66659Z" fill="white"/>
<path d="M10.0272 1.48263C8.98444 2.46991 8.33398 3.86729 8.33398 5.41658C8.33398 6.41416 8.60366 7.34876 9.07408 8.15144C8.70974 8.26947 8.32098 8.33325 7.91732 8.33325C5.84625 8.33325 4.16732 6.65432 4.16732 4.58325C4.16732 2.51218 5.84625 0.833252 7.91732 0.833252C8.69968 0.833252 9.42607 1.07283 10.0272 1.48263Z" fill="white"/>
<path d="M14.7581 13.2443C14.7581 13.9038 14.3219 14.4615 13.7207 14.6479L14.1073 14.63C14.5298 14.63 14.9405 14.4971 15.2782 14.2503L17.6355 12.5304C18.2239 12.1014 19.0474 12.1583 19.5675 12.6642C20.1452 13.2261 20.1452 14.1364 19.5675 14.6973L17.5448 16.665C17.0003 17.1946 16.3056 17.5562 15.5504 17.7034L12.6915 18.2596C12.1245 18.3697 11.5401 18.3564 10.979 18.2197L8.39331 17.5914C8.084 17.5154 7.76688 17.4775 7.44782 17.4775C7.10907 17.4775 6.9397 17.4775 6.8038 17.4289C6.56843 17.3449 6.3832 17.1597 6.29917 16.9243C6.25065 16.7884 6.25065 16.619 6.25065 16.2803V13.4227C6.25065 13.1845 6.25065 13.0654 6.28124 12.9556C6.30833 12.8584 6.35286 12.7669 6.41266 12.6856C6.48016 12.5938 6.57388 12.5203 6.76132 12.3734L7.74932 11.5988C7.74932 11.5988 9.38662 10.8332 10.2911 10.8332C10.6658 10.8332 11.0385 10.8788 11.4025 10.9691L13.6389 11.525C14.2966 11.688 14.7581 12.276 14.7581 12.9504V13.2443Z" fill="white"/>
<path fill-rule="evenodd" clip-rule="evenodd" d="M2.89526 10.8332C2.90261 10.8332 2.90996 10.8332 2.91732 10.8332C2.92468 10.8332 2.93204 10.8332 2.93938 10.8332C3.11442 10.8332 3.28494 10.8332 3.43001 10.8431C3.58865 10.8539 3.77676 10.8793 3.97179 10.9601C4.38017 11.1293 4.70463 11.4537 4.87379 11.8621C4.95457 12.0571 4.97997 12.2452 4.99079 12.4039C5.00069 12.549 5.00067 12.7195 5.00066 12.8945C5.00065 12.9019 5.00065 12.9092 5.00065 12.9166L5.00066 17.1053C5.00067 17.2803 5.00069 17.4509 4.99079 17.5959C4.97997 17.7546 4.95457 17.9427 4.87379 18.1377C4.70463 18.5461 4.38017 18.8706 3.97179 19.0397C3.77676 19.1205 3.58865 19.1459 3.43001 19.1567C3.28494 19.1666 3.11442 19.1666 2.93939 19.1666H2.89525C2.72022 19.1666 2.5497 19.1666 2.40463 19.1567C2.24599 19.1459 2.05788 19.1205 1.86285 19.0397C1.45447 18.8706 1.13001 18.5461 0.960855 18.1377C0.880068 17.9427 0.854674 17.7546 0.843849 17.5959C0.833951 17.4509 0.833968 17.2803 0.833986 17.1053L0.833987 12.9166C0.833987 12.9092 0.833987 12.9019 0.833986 12.8945C0.833968 12.7195 0.833951 12.549 0.843849 12.4039C0.854674 12.2452 0.880068 12.0571 0.960855 11.8621C1.13001 11.4537 1.45447 11.1293 1.86285 10.9601C2.05788 10.8793 2.24599 10.8539 2.40463 10.8431C2.5497 10.8332 2.72022 10.8332 2.89526 10.8332Z" fill="white"/>
</svg>
