<svg className="logo-icon" width="101" height="36" viewBox="0 0 101 36" fill="none" xmlns="http://www.w3.org/2000/svg">
<path d="M39.86 25.5808C39.86 26.0786 39.7935 26.528 39.6606 26.9292C39.5277 27.323 39.3518 27.6722 39.1329 27.9768C38.914 28.274 38.6599 28.5303 38.3706 28.7457C38.0813 28.9538 37.7764 29.1246 37.4559 29.2584C37.1431 29.3921 36.8226 29.4924 36.4942 29.5592C36.1737 29.6187 35.8687 29.6484 35.5795 29.6484H30.0793C29.5555 29.6484 29.0864 29.5853 28.672 29.459C28.2577 29.3327 27.8902 29.1655 27.5697 28.9575C27.2569 28.742 26.9872 28.4968 26.7605 28.222C26.5416 27.9471 26.3617 27.661 26.221 27.3639C26.0803 27.0592 25.9747 26.7546 25.9044 26.45C25.8418 26.138 25.8105 25.8483 25.8105 25.5808V21.6581C25.8105 20.9151 25.9513 20.2873 26.2327 19.7747C26.522 19.2546 26.8777 18.8349 27.2999 18.5154C27.7299 18.1885 28.1951 17.9545 28.6955 17.8133C29.1959 17.6722 29.6571 17.6016 30.0793 17.6016H35.5795V20.4991H30.1028C29.6962 20.4991 29.3874 20.5994 29.1763 20.8C28.9652 20.9931 28.8597 21.2792 28.8597 21.6581V25.5585C28.8597 25.9523 28.9613 26.2494 29.1646 26.45C29.3757 26.6506 29.6806 26.7509 30.0793 26.7509H35.5795C35.9938 26.7509 36.3027 26.6506 36.5059 26.45C36.7092 26.2494 36.8109 25.9597 36.8109 25.5808V12.5087H39.86V25.5808Z" fill="white"/>
<path d="M45.8644 15.1276H42.8153V12.5087H45.8644V15.1276ZM45.8644 29.6484H42.8153V17.6016H45.8644V29.6484Z" fill="white"/>
<path d="M62.8457 29.6484H59.7966V22.9619C59.7966 22.583 59.7262 22.245 59.5855 21.9478C59.4526 21.6432 59.2688 21.3832 59.0343 21.1677C58.7997 20.9523 58.5222 20.7888 58.2016 20.6774C57.8889 20.5585 57.5488 20.4991 57.1813 20.4991H51.8454V29.6484H48.7963V19.0392C48.7963 18.8386 48.8353 18.6529 48.9135 18.482C48.9917 18.3037 49.1012 18.1514 49.2419 18.0251C49.3826 17.8913 49.5468 17.7873 49.7344 17.713C49.9221 17.6387 50.1215 17.6016 50.3325 17.6016H57.2048C57.5879 17.6016 57.9905 17.6425 58.4127 17.7242C58.8427 17.8059 59.2649 17.9396 59.6793 18.1254C60.1015 18.3037 60.5002 18.534 60.8755 18.8163C61.2586 19.0912 61.5948 19.4292 61.884 19.8304C62.1811 20.2242 62.4157 20.6811 62.5877 21.2012C62.7597 21.7212 62.8457 22.3081 62.8457 22.9619V29.6484Z" fill="white"/>
<path d="M68.6156 15.1276H65.5664V12.5087H68.6156V15.1276ZM68.6156 29.6484H65.5664V17.6016H68.6156V29.6484Z" fill="white"/>
<path d="M82.7705 20.4991H75.8748V17.6016H82.7705V20.4991ZM82.7705 15.2725H75.8983C75.4839 15.2725 75.1712 15.3728 74.9601 15.5734C74.749 15.7665 74.6435 16.0526 74.6435 16.4315V29.6484H71.5943V16.4315C71.5943 15.9337 71.6608 15.4879 71.7937 15.0942C71.9266 14.7004 72.1025 14.3549 72.3214 14.0578C72.5482 13.7532 72.8062 13.4968 73.0954 13.2888C73.3847 13.0734 73.6857 12.8988 73.9984 12.765C74.319 12.6313 74.6395 12.5347 74.9601 12.4753C75.2806 12.4084 75.5856 12.375 75.8748 12.375H82.7705V15.2725Z" fill="white"/>
<path d="M98.755 30.8074C98.755 31.3052 98.6885 31.7509 98.5556 32.1447C98.4227 32.5459 98.2468 32.8951 98.0279 33.1922C97.809 33.4968 97.5549 33.7532 97.2656 33.9612C96.9763 34.1766 96.6714 34.3512 96.3509 34.485C96.0381 34.6187 95.7215 34.7153 95.401 34.7747C95.0804 34.8416 94.7755 34.875 94.4862 34.875H88.9861V31.9775H94.4862C94.8928 31.9775 95.1977 31.8772 95.401 31.6766C95.6042 31.476 95.7059 31.1863 95.7059 30.8074V17.6016H98.755V30.8074ZM94.4862 29.6484H88.9861C88.5482 29.6484 88.0791 29.5778 87.5788 29.4367C87.0862 29.2955 86.6249 29.0652 86.1949 28.7457C85.7649 28.4188 85.4092 27.9991 85.1278 27.4864C84.8463 26.9664 84.7056 26.3312 84.7056 25.5808V17.6016H87.7547V25.5808C87.7547 25.9597 87.8602 26.2494 88.0713 26.45C88.2824 26.6506 88.5952 26.7509 89.0095 26.7509H94.4862V29.6484Z" fill="white"/>
<path d="M2.24414 24.75H18.7364C19.7198 24.75 20.6628 25.0572 21.3582 25.6039C22.0535 26.1507 22.4441 26.8923 22.4441 27.6655V29.25H5.96437C5.47641 29.2513 4.99293 29.1768 4.54164 29.0309C4.09036 28.8849 3.68014 28.6704 3.33452 28.3995C2.9889 28.1287 2.71468 27.8068 2.52757 27.4525C2.34045 27.0981 2.24414 26.7182 2.24414 26.3345V24.75Z" fill="white"/>
<path d="M22.4441 27.1717V28.125C22.4441 27.4825 22.0803 26.8664 21.4325 26.4119C20.7847 25.9574 19.906 25.7017 18.9894 25.7011H2.24414V24.75H18.9769C19.4316 24.7489 19.8822 24.8106 20.3028 24.9318C20.7234 25.053 21.1057 25.2312 21.4279 25.4562C21.75 25.6812 22.0056 25.9485 22.18 26.2429C22.3544 26.5373 22.4441 26.8529 22.4441 27.1717Z" fill="white"/>
<path d="M5.96207 1.12502H22.4441V3.1056C22.4441 4.07216 22.0537 4.99912 21.3588 5.68258C20.6639 6.36603 19.7215 6.75 18.7387 6.75H2.24414V4.76942C2.24414 4.28979 2.34039 3.81488 2.52739 3.37192C2.71439 2.92896 2.98844 2.52666 3.33385 2.18809C3.67925 1.84951 4.08921 1.58132 4.54022 1.3989C4.99123 1.21648 5.47441 1.1234 5.96207 1.12502Z" fill="white"/>
<path d="M22.4441 1.125V3.06993H5.7114C5.2561 3.06596 4.80458 3.15834 4.38305 3.34171C3.96152 3.52507 3.57837 3.79578 3.25583 4.13813C2.93328 4.48047 2.67777 4.88764 2.50411 5.336C2.33044 5.78435 2.24209 6.26498 2.24418 6.75V4.80507C2.24418 3.82905 2.60815 2.89301 3.25604 2.20287C3.90393 1.51272 4.78265 1.125 5.6989 1.125H22.4441Z" fill="white"/>
<path d="M5.96207 12.375H22.4441V14.3556C22.4441 14.8342 22.3483 15.3081 22.1621 15.7503C21.9759 16.1924 21.7029 16.5942 21.3588 16.9326C21.0148 17.271 20.6063 17.5394 20.1567 17.7226C19.7072 17.9057 19.2253 18 18.7387 18H2.24414V16.0194C2.24414 15.5398 2.34039 15.0649 2.52739 14.6219C2.71439 14.179 2.98844 13.7767 3.33385 13.4381C3.67925 13.0995 4.08921 12.8313 4.54022 12.6489C4.99123 12.4665 5.47441 12.3734 5.96207 12.375Z" fill="white"/>
<path d="M22.4441 12.3917V14.3366H5.70101C5.24779 14.3344 4.79862 14.4275 4.37931 14.6107C3.95999 14.7938 3.57878 15.0633 3.25758 15.4037C2.93637 15.7441 2.68149 16.1487 2.50758 16.5942C2.33366 17.0398 2.24414 17.5175 2.24414 18V16.0551C2.24414 15.0791 2.60835 14.143 3.25664 13.4529C3.90493 12.7627 4.78419 12.375 5.70101 12.375L22.4441 12.3917Z" fill="white"/>
</svg>
