<svg width="16" height="17" viewBox="0 0 16 17" fill="none" xmlns="http://www.w3.org/2000/svg">
<g id="Icons/Solid/Shapes/star-01">
<path id="Solid" d="M8.43023 1.68378C8.15799 1.55398 7.84171 1.55398 7.56948 1.68378C7.33413 1.79599 7.20438 1.99081 7.13894 2.09769C7.07129 2.20818 7.00185 2.34894 6.93417 2.48613L5.49701 5.39765L2.28231 5.86753C2.13098 5.88961 1.97571 5.91228 1.84977 5.94256C1.72793 5.97186 1.50265 6.03523 1.32338 6.22445C1.11599 6.44337 1.01845 6.74418 1.05793 7.04313C1.09206 7.30155 1.23729 7.48505 1.31876 7.58027C1.40297 7.6787 1.5154 7.78817 1.62498 7.89485L3.95017 10.1596L3.40153 13.3584C3.37563 13.5093 3.34906 13.664 3.33883 13.7932C3.32894 13.9181 3.31937 14.1521 3.44384 14.3812C3.58781 14.6463 3.84373 14.8322 4.14031 14.8871C4.39671 14.9347 4.61623 14.8533 4.73199 14.8052C4.85169 14.7556 4.99064 14.6825 5.12608 14.6112L7.99985 13.0999L10.8736 14.6112C11.0091 14.6825 11.148 14.7556 11.2677 14.8052C11.3835 14.8533 11.603 14.9347 11.8594 14.8871C12.156 14.8322 12.4119 14.6463 12.5559 14.3812C12.6803 14.1521 12.6708 13.9181 12.6609 13.7932C12.6506 13.664 12.6241 13.5093 12.5982 13.3585L12.0495 10.1596L14.3748 7.89482C14.4843 7.78815 14.5967 7.67869 14.681 7.58027C14.7624 7.48505 14.9076 7.30155 14.9418 7.04313C14.9813 6.74418 14.8837 6.44337 14.6763 6.22445C14.4971 6.03523 14.2718 5.97186 14.1499 5.94256C14.024 5.91228 13.8687 5.88961 13.7174 5.86753L10.5027 5.39765L9.06556 2.48618C8.99787 2.34898 8.92842 2.20819 8.86076 2.09769C8.79533 1.99081 8.66557 1.79599 8.43023 1.68378Z" fill="#FBC01C"/>
</g>
</svg>
