<svg width="20" height="20" viewBox="0 0 20 20" fill="none" xmlns="http://www.w3.org/2000/svg">
<path d="M18.7067 7.82874C18.989 7.68758 19.1673 7.39903 19.1673 7.08339C19.1673 6.76774 18.989 6.47919 18.7067 6.33803L10.6502 2.30963C10.5724 2.26995 10.4115 2.18784 10.2311 2.154C10.0788 2.12542 9.92249 2.12542 9.77015 2.154C9.58979 2.18784 9.42889 2.26995 9.35114 2.30963L1.29464 6.33803C1.01232 6.47919 0.833984 6.76774 0.833984 7.08339C0.833984 7.39903 1.01232 7.68758 1.29464 7.82874L9.4031 11.8937C9.62218 12.0036 9.73172 12.0585 9.84664 12.0801C9.94842 12.0992 10.0529 12.0992 10.1547 12.0801C10.2696 12.0585 10.3791 12.0036 10.5982 11.8937L18.7067 7.82874Z" fill="white"/>
<path d="M16.6645 11.8044C16.6645 11.4466 16.6644 11.2677 16.5892 11.1601C16.5235 11.0662 16.4221 11.0035 16.3087 10.9868C16.1788 10.9676 16.0189 11.0476 15.6992 11.2075L10.6502 13.7321C10.5724 13.7718 10.4115 13.8539 10.2311 13.8877C10.0788 13.9163 9.92249 13.9163 9.77015 13.8877C9.58979 13.8539 9.42888 13.7718 9.35114 13.7321L4.302 11.2074C3.98222 11.0475 3.82234 10.9676 3.6925 10.9867C3.57906 11.0035 3.4777 11.0661 3.41197 11.1601C3.33673 11.2676 3.3367 11.4465 3.33664 11.8043C3.33654 12.3381 3.33578 12.8719 3.33375 13.4057C3.33288 13.6357 3.33178 13.9248 3.425 14.1951C3.50556 14.4286 3.63702 14.6413 3.80988 14.8178C4.00993 15.0221 4.269 15.1504 4.47513 15.2525C6.01117 16.0156 7.5458 16.7816 9.07738 17.5536C9.24621 17.6386 9.45869 17.7457 9.69325 17.7897C9.89636 17.8278 10.1048 17.8278 10.3079 17.7897C10.5424 17.7457 10.7549 17.6386 10.9238 17.5536C12.4553 16.7817 13.9891 16.0137 15.526 15.2525C15.7322 15.1504 15.9912 15.0221 16.1913 14.8178C16.3641 14.6413 16.4956 14.4286 16.5762 14.1951C16.6694 13.9248 16.6683 13.6357 16.6674 13.4057C16.6654 12.8719 16.6646 12.3382 16.6645 11.8044Z" fill="white"/>
</svg>
