<svg width="20" height="20" viewBox="0 0 20 20" fill="none" xmlns="http://www.w3.org/2000/svg">
<path d="M6.66602 3.00008C6.66602 2.53337 6.66602 2.30002 6.57519 2.12176C6.49529 1.96495 6.36781 1.83747 6.21101 1.75758C6.03275 1.66675 5.79939 1.66675 5.33268 1.66675H5.1339C4.69462 1.66673 4.31563 1.66672 4.00349 1.69222C3.67404 1.71914 3.34636 1.77857 3.03104 1.93923C2.56064 2.17892 2.17818 2.56137 1.9385 3.03177C1.77784 3.34709 1.71841 3.67477 1.69149 4.00423C1.66599 4.31636 1.666 4.69532 1.66602 5.1346V5.33342C1.66602 5.80013 1.66602 6.03348 1.75684 6.21174C1.83674 6.36854 1.96422 6.49603 2.12102 6.57592C2.29928 6.66675 2.53264 6.66675 2.99935 6.66675H5.33268C5.79939 6.66675 6.03275 6.66675 6.21101 6.57592C6.36781 6.49603 6.49529 6.36854 6.57519 6.21174C6.66602 6.03348 6.66602 5.80013 6.66602 5.33342V3.00008Z" fill="white"/>
<path d="M2.99935 8.33342C2.53264 8.33342 2.29928 8.33342 2.12102 8.42424C1.96422 8.50414 1.83674 8.63162 1.75684 8.78842C1.66602 8.96668 1.66602 9.20004 1.66602 9.66675V14.8655C1.666 15.3048 1.66599 15.6838 1.69149 15.9959C1.71841 16.3254 1.77784 16.6531 1.9385 16.9684C2.17818 17.4388 2.56064 17.8212 3.03104 18.0609C3.34636 18.2216 3.67404 18.281 4.00349 18.3079C4.31563 18.3334 4.6946 18.3334 5.13388 18.3334H5.33268C5.79939 18.3334 6.03275 18.3334 6.21101 18.2426C6.36781 18.1627 6.49529 18.0352 6.57519 17.8784C6.66602 17.7001 6.66602 17.4668 6.66602 17.0001L6.66602 9.66675C6.66602 9.20004 6.66602 8.96668 6.57519 8.78842C6.49529 8.63162 6.36781 8.50414 6.21101 8.42424C6.03275 8.33342 5.79939 8.33342 5.33268 8.33342H2.99935Z" fill="white"/>
<path d="M8.33268 17.0001C8.33268 17.4668 8.33268 17.7001 8.42351 17.8784C8.50341 18.0352 8.63089 18.1627 8.78769 18.2426C8.96595 18.3334 9.19931 18.3334 9.66602 18.3334H14.8648C15.3041 18.3334 15.6831 18.3334 15.9952 18.3079C16.3247 18.281 16.6523 18.2216 16.9677 18.0609C17.4381 17.8212 17.8205 17.4388 18.0602 16.9684C18.2209 16.6531 18.2803 16.3254 18.3072 15.9959C18.3327 15.6838 18.3327 15.3048 18.3327 14.8656V9.66675C18.3327 9.20004 18.3327 8.96668 18.2419 8.78842C18.162 8.63162 18.0345 8.50414 17.8777 8.42424C17.6994 8.33342 17.4661 8.33342 16.9993 8.33342H9.66602C9.19931 8.33342 8.96595 8.33342 8.78769 8.42424C8.63089 8.50414 8.50341 8.63162 8.42351 8.78842C8.33268 8.96668 8.33268 9.20004 8.33268 9.66675L8.33268 17.0001Z" fill="white"/>
<path d="M18.3327 5.33342C18.3327 5.80013 18.3327 6.03348 18.2419 6.21174C18.162 6.36854 18.0345 6.49603 17.8777 6.57592C17.6994 6.66675 17.4661 6.66675 16.9993 6.66675H9.66602C9.19931 6.66675 8.96595 6.66675 8.78769 6.57592C8.63089 6.49603 8.50341 6.36854 8.42351 6.21174C8.33268 6.03348 8.33268 5.80013 8.33268 5.33342V3.00008C8.33268 2.53337 8.33268 2.30002 8.42351 2.12176C8.50341 1.96495 8.63089 1.83747 8.78769 1.75758C8.96595 1.66675 9.19931 1.66675 9.66602 1.66675H14.8648C15.3041 1.66673 15.6831 1.66672 15.9952 1.69222C16.3247 1.71914 16.6523 1.77857 16.9677 1.93923C17.4381 2.17892 17.8205 2.56137 18.0602 3.03177C18.2209 3.34709 18.2803 3.67477 18.3072 4.00423C18.3327 4.31637 18.3327 4.69533 18.3327 5.13461V5.33342Z" fill="white"/>
</svg>
