<svg width="56" height="56" viewBox="0 0 56 56" fill="none" xmlns="http://www.w3.org/2000/svg">
<rect width="56" height="56" rx="28" fill="#9A9A9A"/>
<path d="M33.586 14.6667H22.4127C17.5593 14.6667 14.666 17.5601 14.666 22.4134V33.5867C14.666 38.4401 17.5593 41.3334 22.4127 41.3334H33.586C38.4393 41.3334 41.3327 38.4401 41.3327 33.5867V22.4134C41.3327 17.5601 38.4393 14.6667 33.586 14.6667ZM25.2927 31.8667L22.2927 34.8667C22.0927 35.0667 21.8393 35.1601 21.586 35.1601C21.3327 35.1601 21.066 35.0667 20.8793 34.8667L19.8793 33.8667C19.4793 33.4801 19.4793 32.8401 19.8793 32.4534C20.266 32.0667 20.8927 32.0667 21.2927 32.4534L21.586 32.7467L23.8793 30.4534C24.266 30.0667 24.8927 30.0667 25.2927 30.4534C25.6793 30.8401 25.6793 31.4801 25.2927 31.8667ZM25.2927 22.5334L22.2927 25.5334C22.0927 25.7334 21.8393 25.8267 21.586 25.8267C21.3327 25.8267 21.066 25.7334 20.8793 25.5334L19.8793 24.5334C19.4793 24.1467 19.4793 23.5067 19.8793 23.1201C20.266 22.7334 20.8927 22.7334 21.2927 23.1201L21.586 23.4134L23.8793 21.1201C24.266 20.7334 24.8927 20.7334 25.2927 21.1201C25.6793 21.5067 25.6793 22.1467 25.2927 22.5334ZM35.4127 34.1601H28.4127C27.866 34.1601 27.4127 33.7067 27.4127 33.1601C27.4127 32.6134 27.866 32.1601 28.4127 32.1601H35.4127C35.9727 32.1601 36.4127 32.6134 36.4127 33.1601C36.4127 33.7067 35.9727 34.1601 35.4127 34.1601ZM35.4127 24.8267H28.4127C27.866 24.8267 27.4127 24.3734 27.4127 23.8267C27.4127 23.2801 27.866 22.8267 28.4127 22.8267H35.4127C35.9727 22.8267 36.4127 23.2801 36.4127 23.8267C36.4127 24.3734 35.9727 24.8267 35.4127 24.8267Z" fill="white"/>
</svg>
