<svg width="20" height="20" viewBox="0 0 20 20" fill="none" xmlns="http://www.w3.org/2000/svg">
<path fill-rule="evenodd" clip-rule="evenodd" d="M5.83398 7.91658C5.83398 5.6154 7.69946 3.74992 10.0007 3.74992C12.3018 3.74992 14.1673 5.6154 14.1673 7.91658C14.1673 10.2178 12.3018 12.0833 10.0007 12.0833C7.69946 12.0833 5.83398 10.2178 5.83398 7.91658Z" fill="white"/>
<path fill-rule="evenodd" clip-rule="evenodd" d="M14.3684 0.833252H5.6329C4.9621 0.833242 4.40846 0.833233 3.95746 0.870081C3.48905 0.908352 3.05846 0.990489 2.65402 1.19656C2.02681 1.51614 1.51687 2.02608 1.1973 2.65328C0.991221 3.05773 0.909084 3.48832 0.870813 3.95673C0.833966 4.40772 0.833974 4.96135 0.833985 5.63216V14.3677C0.833974 15.0385 0.833966 15.5921 0.870813 16.0431C0.909084 16.5115 0.991221 16.9421 1.1973 17.3466C1.51687 17.9738 2.02681 18.4837 2.65402 18.8033C3.05846 19.0093 3.48905 19.0915 3.95746 19.1298C4.40846 19.1666 4.96208 19.1666 5.63288 19.1666H14.3684C15.0392 19.1666 15.5928 19.1666 16.0438 19.1298C16.5123 19.0915 16.9428 19.0093 17.3473 18.8033C17.9745 18.4837 18.4844 17.9738 18.804 17.3466C19.0101 16.9421 19.0922 16.5115 19.1305 16.0431C19.1673 15.5921 19.1673 15.0385 19.1673 14.3677V5.63215C19.1673 4.96135 19.1673 4.40772 19.1305 3.95673C19.0922 3.48832 19.0101 3.05773 18.804 2.65328C18.4844 2.02608 17.9745 1.51614 17.3473 1.19656C16.9428 0.990489 16.5123 0.908352 16.0438 0.870081C15.5928 0.833233 15.0392 0.833242 14.3684 0.833252ZM3.41067 2.68158C3.541 2.61517 3.72784 2.56106 4.09318 2.53121C4.46826 2.50057 4.9535 2.49992 5.66732 2.49992H14.334C15.0478 2.49992 15.533 2.50057 15.9081 2.53121C16.2735 2.56106 16.4603 2.61517 16.5906 2.68158C16.9042 2.84136 17.1592 3.09633 17.319 3.40994C17.3854 3.54027 17.4395 3.7271 17.4694 4.09245C17.5 4.46753 17.5006 4.95277 17.5006 5.66659V14.3333C17.5006 15.0471 17.5 15.5323 17.4694 15.9074C17.4477 16.172 17.4134 16.343 17.3708 16.4667C16.9431 14.7914 15.5072 13.5271 13.7424 13.3533C13.5379 13.3332 13.3061 13.3332 12.9656 13.3333H7.03578C6.69527 13.3332 6.46339 13.3332 6.25892 13.3533C4.49416 13.5271 3.05816 14.7915 2.63047 16.4667C2.58792 16.3431 2.55357 16.1721 2.53194 15.9074C2.5013 15.5323 2.50065 15.0471 2.50065 14.3333V5.66659C2.50065 4.95277 2.5013 4.46753 2.53194 4.09245C2.56179 3.7271 2.6159 3.54027 2.68231 3.40994C2.8421 3.09633 3.09706 2.84136 3.41067 2.68158Z" fill="white"/>
</svg>
