<svg width="16" height="16" viewBox="0 0 16 16" fill="none" xmlns="http://www.w3.org/2000/svg">
<g id="Icons/Solid/Users/user-x-01                   ">
<g id="Solid">
<path d="M11.472 10.1953C11.2116 9.93495 10.7895 9.93495 10.5292 10.1953C10.2688 10.4557 10.2688 10.8778 10.5292 11.1381L11.7244 12.3334L10.5292 13.5286C10.2688 13.789 10.2688 14.2111 10.5292 14.4714C10.7895 14.7318 11.2116 14.7318 11.472 14.4714L12.6672 13.2762L13.8625 14.4714C14.1228 14.7318 14.545 14.7318 14.8053 14.4714C15.0657 14.2111 15.0657 13.789 14.8053 13.5286L13.61 12.3334L14.8053 11.1381C15.0657 10.8778 15.0657 10.4557 14.8053 10.1953C14.545 9.93495 14.1228 9.93495 13.8625 10.1953L12.6672 11.3906L11.472 10.1953Z" fill="#1E1E1E"/>
<path fill-rule="evenodd" clip-rule="evenodd" d="M4.52461 9.6667C5.51064 9.66692 6.49667 9.66708 7.4827 9.6667C7.56211 9.66667 7.65694 9.66664 7.74049 9.67346C7.8373 9.68137 7.97596 9.70167 8.12126 9.7757C8.30942 9.87157 8.4624 10.0246 8.55828 10.2127C8.63231 10.358 8.6526 10.4967 8.66051 10.5935C8.66734 10.677 8.6673 10.7719 8.66727 10.8513C8.66695 11.7282 8.66695 12.6052 8.66727 13.4821C8.6673 13.5615 8.66734 13.6564 8.66051 13.7399C8.6526 13.8367 8.63231 13.9754 8.55828 14.1207C8.4624 14.3089 8.30942 14.4618 8.12126 14.5577C7.97596 14.6317 7.8373 14.652 7.74049 14.66C7.65694 14.6668 7.56211 14.6667 7.4827 14.6667C5.56444 14.666 3.64584 14.6565 1.72761 14.6668C1.68004 14.667 1.5844 14.6675 1.49362 14.6515C1.07961 14.5785 0.755464 14.2544 0.682463 13.8404C0.666456 13.7496 0.666965 13.6539 0.667218 13.6064C0.669315 13.2124 0.649195 12.8109 0.717911 12.4212C0.96125 11.0412 2.04174 9.96069 3.42177 9.71735C3.71005 9.66652 4.04016 9.66659 4.52461 9.6667Z" fill="#1E1E1E"/>
<path fill-rule="evenodd" clip-rule="evenodd" d="M3.0006 5.00004C3.0006 2.975 4.64223 1.33337 6.66727 1.33337C8.69231 1.33337 10.3339 2.975 10.3339 5.00004C10.3339 7.02508 8.69231 8.66671 6.66727 8.66671C4.64223 8.66671 3.0006 7.02508 3.0006 5.00004Z" fill="#1E1E1E"/>
</g>
</g>
</svg>
