<svg width="20" height="20" viewBox="0 0 20 20" fill="none" xmlns="http://www.w3.org/2000/svg">
<g id="Icons/Solid/Communication/message-dots-square">
<path id="Solid" fill-rule="evenodd" clip-rule="evenodd" d="M13.5338 1.66602H6.46501C5.79421 1.66601 5.24057 1.666 4.78957 1.70284C4.32116 1.74112 3.89057 1.82325 3.48613 2.02933C2.85892 2.34891 2.34899 2.85884 2.02941 3.48605C1.82333 3.89049 1.7412 4.32108 1.70292 4.78949C1.66608 5.24049 1.66608 5.79412 1.6661 6.46493L1.66605 11.7807C1.6657 12.4435 1.66543 12.9357 1.77968 13.3621C2.0879 14.5124 2.98639 15.4109 4.1367 15.7191C4.39292 15.7878 4.67292 15.8151 4.99943 15.8258L4.99943 16.9751C4.99939 17.1712 4.99935 17.371 5.01422 17.5348C5.02845 17.6914 5.06612 17.987 5.2725 18.2456C5.50999 18.5431 5.8701 18.7162 6.25078 18.7158C6.5816 18.7154 6.83596 18.5601 6.96716 18.4734C7.10432 18.3827 7.26035 18.2579 7.41341 18.1354L9.42435 16.5266C9.85651 16.1809 9.98481 16.0833 10.1181 16.0152C10.2519 15.9468 10.3942 15.8969 10.5413 15.8667C10.688 15.8366 10.8491 15.8327 11.4026 15.8327H13.5339C14.2047 15.8327 14.7583 15.8327 15.2093 15.7959C15.6777 15.7576 16.1083 15.6754 16.5127 15.4694C17.1399 15.1498 17.6499 14.6399 17.9695 14.0127C18.1755 13.6082 18.2577 13.1776 18.2959 12.7092C18.3328 12.2582 18.3328 11.7046 18.3328 11.0338V6.46491C18.3328 5.79411 18.3328 5.24049 18.2959 4.78949C18.2577 4.32108 18.1755 3.89049 17.9695 3.48605C17.6499 2.85884 17.1399 2.34891 16.5127 2.02933C16.1083 1.82325 15.6777 1.74112 15.2093 1.70284C14.7583 1.666 14.2046 1.66601 13.5338 1.66602ZM4.99935 8.74935C4.99935 8.05899 5.55899 7.49935 6.24935 7.49935C6.93971 7.49935 7.49935 8.05899 7.49935 8.74935C7.49935 9.4397 6.93971 9.99935 6.24935 9.99935C5.55899 9.99935 4.99935 9.4397 4.99935 8.74935ZM8.74935 8.74935C8.74935 8.05899 9.30899 7.49935 9.99935 7.49935C10.6897 7.49935 11.2493 8.05899 11.2493 8.74935C11.2493 9.4397 10.6897 9.99935 9.99935 9.99935C9.30899 9.99935 8.74935 9.4397 8.74935 8.74935ZM13.7493 7.49935C13.059 7.49935 12.4993 8.05899 12.4993 8.74935C12.4993 9.4397 13.059 9.99935 13.7493 9.99935C14.4397 9.99935 14.9993 9.4397 14.9993 8.74935C14.9993 8.05899 14.4397 7.49935 13.7493 7.49935Z" fill="white"/>
</g>
</svg>
