<svg width="25" height="36" viewBox="0 0 25 36" fill="none" xmlns="http://www.w3.org/2000/svg">
<g id="Logo">
<path id="Vector" d="M2.24414 24.75H18.7364C19.7198 24.75 20.6628 25.0572 21.3582 25.6039C22.0535 26.1507 22.4441 26.8923 22.4441 27.6655V29.25H5.96437C5.47641 29.2513 4.99293 29.1768 4.54164 29.0309C4.09036 28.8849 3.68014 28.6704 3.33452 28.3995C2.9889 28.1287 2.71468 27.8068 2.52757 27.4525C2.34045 27.0981 2.24414 26.7182 2.24414 26.3345V24.75Z" fill="white"/>
<path id="Vector_2" d="M22.4441 27.1717V28.125C22.4441 27.4825 22.0803 26.8664 21.4325 26.4119C20.7847 25.9574 19.906 25.7017 18.9894 25.7011H2.24414V24.75H18.9769C19.4316 24.7489 19.8822 24.8106 20.3028 24.9318C20.7234 25.053 21.1057 25.2312 21.4279 25.4562C21.75 25.6812 22.0056 25.9485 22.18 26.2429C22.3544 26.5373 22.4441 26.8529 22.4441 27.1717Z" fill="white"/>
<path id="Vector_3" d="M5.96207 1.12502H22.4441V3.1056C22.4441 4.07216 22.0537 4.99912 21.3588 5.68258C20.6639 6.36603 19.7215 6.75 18.7387 6.75H2.24414V4.76942C2.24414 4.28979 2.34039 3.81488 2.52739 3.37192C2.71439 2.92896 2.98844 2.52666 3.33385 2.18809C3.67925 1.84951 4.08921 1.58132 4.54022 1.3989C4.99123 1.21648 5.47441 1.1234 5.96207 1.12502Z" fill="white"/>
<path id="Vector_4" d="M22.4441 1.125V3.06993H5.7114C5.2561 3.06596 4.80458 3.15834 4.38305 3.34171C3.96152 3.52507 3.57837 3.79578 3.25583 4.13813C2.93328 4.48047 2.67777 4.88764 2.50411 5.336C2.33044 5.78435 2.24209 6.26498 2.24418 6.75V4.80507C2.24418 3.82905 2.60815 2.89301 3.25604 2.20287C3.90393 1.51272 4.78265 1.125 5.6989 1.125H22.4441Z" fill="white"/>
<path id="Vector_5" d="M5.96207 12.375H22.4441V14.3556C22.4441 14.8342 22.3483 15.3081 22.1621 15.7503C21.9759 16.1924 21.7029 16.5942 21.3588 16.9326C21.0148 17.271 20.6063 17.5394 20.1567 17.7226C19.7072 17.9057 19.2253 18 18.7387 18H2.24414V16.0194C2.24414 15.5398 2.34039 15.0649 2.52739 14.6219C2.71439 14.179 2.98844 13.7767 3.33385 13.4381C3.67925 13.0995 4.08921 12.8313 4.54022 12.6489C4.99123 12.4665 5.47441 12.3734 5.96207 12.375Z" fill="white"/>
<path id="Vector_6" d="M22.4441 12.3917V14.3366H5.70101C5.24779 14.3344 4.79862 14.4275 4.37931 14.6107C3.95999 14.7938 3.57878 15.0633 3.25758 15.4037C2.93637 15.7441 2.68149 16.1487 2.50758 16.5942C2.33366 17.0398 2.24414 17.5175 2.24414 18V16.0551C2.24414 15.0791 2.60835 14.143 3.25664 13.4529C3.90493 12.7627 4.78419 12.375 5.70101 12.375L22.4441 12.3917Z" fill="white"/>
</g>
</svg>
