<svg width="20" height="20" viewBox="0 0 20 20" fill="none" xmlns="http://www.w3.org/2000/svg">
<g id="Icons/Line/General/edit-02">
<path id="Icon" d="M14.9997 8.33424L11.6664 5.0009M2.08301 17.9176L4.90331 17.6042C5.24789 17.5659 5.42018 17.5468 5.58121 17.4946C5.72408 17.4484 5.86005 17.383 5.98541 17.3004C6.12672 17.2072 6.2493 17.0846 6.49445 16.8395L17.4997 5.83424C18.4202 4.91376 18.4202 3.42138 17.4997 2.5009C16.5792 1.58043 15.0868 1.58043 14.1664 2.5009L3.16112 13.5061C2.91596 13.7513 2.79339 13.8739 2.70021 14.0152C2.61753 14.1405 2.55219 14.2765 2.50594 14.4194C2.4538 14.5804 2.43466 14.7527 2.39637 15.0973L2.08301 17.9176Z" stroke="#9A9A9A" stroke-width="2" stroke-linecap="round" stroke-linejoin="round"/>
</g>
</svg>
